<?xml version="1.0" encoding="UTF-8" standalone="no"?>
<!-- Created with Inkscape (http://www.inkscape.org/) -->

<svg
   xmlns:dc="http://purl.org/dc/elements/1.1/"
   xmlns:cc="http://creativecommons.org/ns#"
   xmlns:rdf="http://www.w3.org/1999/02/22-rdf-syntax-ns#"
   xmlns:svg="http://www.w3.org/2000/svg"
   xmlns="http://www.w3.org/2000/svg"
   xmlns:sodipodi="http://sodipodi.sourceforge.net/DTD/sodipodi-0.dtd"
   xmlns:inkscape="http://www.inkscape.org/namespaces/inkscape"
   id="svg3393"
   version="1.1"
   inkscape:version="0.92.3 (2405546, 2018-03-11)"
   xml:space="preserve"
   width="5cm"
   height="5cm"
   viewBox="0 0 17007.875 17007.875"
   sodipodi:docname="mdp.svg"><metadata
     id="metadata3399"><rdf:rdf><cc:work
         rdf:about=""><dc:format>image/svg+xml</dc:format><dc:type
           rdf:resource="http://purl.org/dc/dcmitype/StillImage" /><dc:title /></cc:work></rdf:rdf><rdf:RDF><cc:Work
         rdf:about=""><dc:format>image/svg+xml</dc:format><dc:type
           rdf:resource="http://purl.org/dc/dcmitype/StillImage" /><dc:title></dc:title></cc:Work></rdf:RDF></metadata><defs
     id="defs3397" /><sodipodi:namedview
     pagecolor="#ffffff"
     bordercolor="#666666"
     borderopacity="1"
     objecttolerance="10"
     gridtolerance="10"
     guidetolerance="10"
     inkscape:pageopacity="0"
     inkscape:pageshadow="2"
     inkscape:window-width="1920"
     inkscape:window-height="1053"
     id="namedview3395"
     showgrid="false"
     units="cm"
     fit-margin-top="0.5"
     fit-margin-left="0.5"
     fit-margin-right="0.5"
     fit-margin-bottom="0.5"
     inkscape:zoom="1.9254256"
     inkscape:cx="-30.208699"
     inkscape:cy="29.321561"
     inkscape:window-x="0"
     inkscape:window-y="27"
     inkscape:window-maximized="1"
     inkscape:current-layer="g3403" /><g
     id="g3401"
     inkscape:groupmode="layer"
     inkscape:label="POMDP Slide"
     transform="matrix(1.25,0,0,-1.25,-207.91016,17018.613)"><g
       id="g3403"><g
         id="g3427"
         transform="matrix(36.216943,0,0,36.216943,-5829.378,-1138.3444)"><path
           inkscape:connector-curvature="0"
           id="path3429"
           style="fill:none;stroke:#ffc000;stroke-width:1.24519002;stroke-linecap:butt;stroke-linejoin:round;stroke-miterlimit:10;stroke-dasharray:none;stroke-opacity:1"
           d="m 458.7,347.4 c 6.9,0 13.8,4.9 13.8,9.9 0,4.9 3.7,7.2 8.5,8.9" /></g><path
         inkscape:connector-curvature="0"
         id="path3431"
         style="fill:#ffc000;fill-opacity:1;fill-rule:evenodd;stroke:none;stroke-width:36.21694183"
         d="m 11786.543,12160.517 -191.95,-148.489 65.191,123.137 -105.03,90.542 z" /><g
         id="g3433"
         transform="matrix(36.216943,0,0,36.216943,-5829.378,-1138.3444)"><path
           inkscape:connector-curvature="0"
           id="path3435"
           style="fill:none;stroke:#ffc000;stroke-width:1.24519002;stroke-linecap:butt;stroke-linejoin:round;stroke-miterlimit:10;stroke-dasharray:none;stroke-opacity:1"
           d="m 344.5,88 c 8.6,0 17.2,-8.3 17.2,-16.5 0,-8.3 5.3,-13 11.7,-15.5" /></g><path
         inkscape:connector-curvature="0"
         id="path3437"
         style="fill:#ffc000;fill-opacity:1;fill-rule:evenodd;stroke:none;stroke-width:36.21694183"
         d="m 7893.2216,853.58756 -235.4101,-61.56882 108.6507,86.92065 -65.1905,123.13761 z" /><g
         id="g3439"
         transform="matrix(36.216943,0,0,36.216943,-5829.378,-1138.3444)"><path
           inkscape:connector-curvature="0"
           id="path3441"
           style="fill:none;stroke:#ffc000;stroke-width:1.24519002;stroke-linecap:butt;stroke-linejoin:round;stroke-miterlimit:10;stroke-dasharray:none;stroke-opacity:1"
           d="m 264,350 c -8.1,0 -16.2,5.4 -16.2,10.9 0,5.4 -4.8,8.4 -10.7,10.1" /></g><path
         inkscape:connector-curvature="0"
         id="path3443"
         style="fill:#ffc000;fill-opacity:1;fill-rule:evenodd;stroke:none;stroke-width:36.21694183"
         d="m 2558.4658,12327.115 231.7885,72.434 -101.4075,-94.164 68.8122,-119.516 z" /><path
         inkscape:connector-curvature="0"
         id="path3445"
         style="fill:#ed7d31;fill-opacity:1;fill-rule:evenodd;stroke:none;stroke-width:36.21694183"
         d="m 2489.6537,4152.951 v 0 36.217 l 3.6216,36.2169 3.6218,39.8386 7.2434,36.217 10.865,36.2169 10.8651,36.217 10.8651,36.2169 14.4868,32.5952 14.4867,36.2172 21.7302,32.595 18.1085,28.9738 21.7302,32.595 21.7301,28.9738 25.3519,28.9733 25.3518,28.9738 25.3519,25.3516 28.9736,21.7303 32.5952,25.3517 28.9735,21.7303 32.5953,18.1086 32.5952,18.1082 32.5953,18.1086 36.217,14.4868 36.2169,10.8652 32.5952,10.8647 39.8386,7.2435 36.217,7.2434 36.2169,3.6217 36.217,3.6218 39.8386,3.6217 v 0 l 36.217,-3.6217 36.2169,-3.6218 39.8387,-3.6217 36.2169,-7.2434 36.2169,-7.2435 36.217,-10.8647 36.2169,-10.8652 32.5953,-14.4868 36.2169,-18.1086 32.5953,-18.1082 28.9735,-18.1086 32.5953,-21.7303 28.9735,-25.3517 28.9736,-21.7303 28.9735,-25.3516 25.3519,-28.9738 21.7301,-28.9733 25.3519,-28.9738 21.7302,-32.595 18.1084,-28.9738 18.1085,-32.595 18.1085,-36.2172 14.4868,-32.5952 10.8651,-36.2169 10.865,-36.217 7.2434,-36.2169 7.2434,-36.217 3.6217,-39.8386 3.6217,-36.2169 3.6217,-36.217 h -3.6217 v -39.8386 l -3.6217,-36.2169 -3.6217,-36.217 -7.2434,-36.2169 -7.2434,-36.217 -10.865,-39.8387 -14.4868,-32.5952 -14.4868,-36.2169 -14.4868,-32.5953 -18.1085,-32.5952 -18.1084,-32.5953 -21.7302,-32.5952 -25.3519,-28.9736 -21.7301,-28.9735 -25.3519,-25.3519 -28.9735,-25.3519 -28.9736,-25.3518 -28.9735,-21.7302 -32.5953,-21.7301 -28.9735,-21.7302 -32.5953,-18.1085 -36.2169,-14.4868 -32.5953,-14.4867 -36.2169,-14.4868 -36.217,-7.2434 -36.2169,-10.8651 -36.2169,-7.2434 -39.8387,-3.6217 -36.2169,-3.6217 h -36.217 v 0 h -36.2169 l -39.8387,3.6217 -36.2169,7.2434 -36.217,3.6217 -36.2169,10.8651 -36.2169,10.8651 -36.2169,10.8651 -36.217,14.4867 -32.5953,18.1085 -32.5952,14.4868 -32.5953,21.7302 -28.9735,21.7301 -32.5952,21.7302 -28.9736,25.3518 -25.3519,25.3519 -25.3518,28.9736 -25.3519,25.3518 -21.7301,28.9736 -21.7302,32.5952 -18.1085,32.5953 -21.7302,32.5952 -14.4867,32.5953 -14.4868,36.2169 -10.8651,36.217 -10.8651,36.2169 -10.865,36.217 -7.2434,36.2169 -3.6218,36.217 -3.6216,36.2169 z m 0,717.0955 z m 1434.1909,-1434.191 z" /><g
         id="g3447"
         transform="matrix(36.216943,0,0,36.216943,-5829.378,-1138.3444)"><path
           inkscape:connector-curvature="0"
           id="path3449"
           style="fill:none;stroke:#af5c24;stroke-width:0.99049997;stroke-linecap:butt;stroke-linejoin:miter;stroke-miterlimit:7.66129017;stroke-dasharray:none;stroke-opacity:1"
           d="m 229.7,146.1 v 0 1 l 0.1,1 0.1,1.1 0.2,1 0.3,1 0.3,1 0.3,1 0.4,0.9 0.4,1 0.6,0.9 0.5,0.8 0.6,0.9 0.6,0.8 0.7,0.8 0.7,0.8 0.7,0.7 0.8,0.6 0.9,0.7 0.8,0.6 0.9,0.5 0.9,0.5 0.9,0.5 1,0.4 1,0.3 0.9,0.3 1.1,0.2 1,0.2 1,0.1 1,0.1 1.1,0.1 v 0 l 1,-0.1 1,-0.1 1.1,-0.1 1,-0.2 1,-0.2 1,-0.3 1,-0.3 0.9,-0.4 1,-0.5 0.9,-0.5 0.8,-0.5 0.9,-0.6 0.8,-0.7 0.8,-0.6 0.8,-0.7 0.7,-0.8 0.6,-0.8 0.7,-0.8 0.6,-0.9 0.5,-0.8 0.5,-0.9 0.5,-1 0.4,-0.9 0.3,-1 0.3,-1 0.2,-1 0.2,-1 0.1,-1.1 0.1,-1 0.1,-1 h -0.1 V 145 l -0.1,-1 -0.1,-1 -0.2,-1 -0.2,-1 -0.3,-1.1 -0.4,-0.9 -0.4,-1 -0.4,-0.9 -0.5,-0.9 -0.5,-0.9 -0.6,-0.9 -0.7,-0.8 -0.6,-0.8 -0.7,-0.7 -0.8,-0.7 -0.8,-0.7 -0.8,-0.6 -0.9,-0.6 -0.8,-0.6 -0.9,-0.5 -1,-0.4 -0.9,-0.4 -1,-0.4 -1,-0.2 -1,-0.3 -1,-0.2 -1.1,-0.1 -1,-0.1 h -1 v 0 h -1 l -1.1,0.1 -1,0.2 -1,0.1 -1,0.3 -1,0.3 -1,0.3 -1,0.4 -0.9,0.5 -0.9,0.4 -0.9,0.6 -0.8,0.6 -0.9,0.6 -0.8,0.7 -0.7,0.7 -0.7,0.8 -0.7,0.7 -0.6,0.8 -0.6,0.9 -0.5,0.9 -0.6,0.9 -0.4,0.9 -0.4,1 -0.3,1 -0.3,1 -0.3,1 -0.2,1 -0.1,1 -0.1,1 z" /></g><g
         id="g3451"
         transform="matrix(36.216943,0,0,36.216943,-5829.378,-1138.3444)"><path
           inkscape:connector-curvature="0"
           id="path3453"
           style="fill:none;stroke:#af5c24;stroke-width:0.99049997;stroke-linecap:butt;stroke-linejoin:miter;stroke-miterlimit:7.66129017;stroke-dasharray:none;stroke-opacity:1"
           d="M 229.7,165.9 Z" /></g><g
         id="g3455"
         transform="matrix(36.216943,0,0,36.216943,-5829.378,-1138.3444)"><path
           inkscape:connector-curvature="0"
           id="path3457"
           style="fill:none;stroke:#af5c24;stroke-width:0.99049997;stroke-linecap:butt;stroke-linejoin:miter;stroke-miterlimit:7.66129017;stroke-dasharray:none;stroke-opacity:1"
           d="M 269.3,126.3 Z" /></g><g
         id="g3459"
         transform="matrix(36.216943,0,0,36.216943,-5829.378,-1138.3444)"><text
   id="text3461"
   style="font-variant:normal;font-weight:bold;font-size:28px;line-height:0%;font-family:Carlito;-inkscape-font-specification:Carlito-Bold;writing-mode:lr-tb;fill:#000000;fill-opacity:1;fill-rule:nonzero;stroke:none"
   transform="matrix(1,0,0,-1,242.4,134.8)"><tspan
     id="tspan3463"
     y="0"
     x="0">2</tspan></text>

</g><path
         inkscape:connector-curvature="0"
         id="path3465"
         style="fill:#ed7d31;fill-opacity:1;fill-rule:evenodd;stroke:none;stroke-width:36.21694183"
         d="m 11141.881,4200.033 v 0 36.217 l 3.622,36.2169 7.243,39.8387 3.622,36.2169 10.865,36.217 10.865,36.2169 10.866,36.217 14.486,32.595 14.487,36.2172 21.73,32.5951 18.108,28.9737 21.731,32.5951 21.73,28.9737 25.352,28.9734 25.352,28.9737 25.351,25.3517 28.974,21.7303 32.595,25.352 28.974,21.7299 32.595,18.1086 32.595,18.1086 32.595,18.1082 36.218,14.4869 36.216,10.8651 36.217,10.8652 36.217,7.2434 36.217,7.2431 36.217,3.6217 36.217,3.6217 39.839,3.6217 v 0 l 36.217,-3.6217 39.838,-3.6217 36.217,-3.6217 36.217,-7.2431 36.217,-7.2434 36.217,-10.8652 36.217,-10.8651 32.595,-14.4869 36.217,-18.1082 32.595,-18.1086 32.596,-18.1086 28.973,-21.7299 28.974,-25.352 28.973,-21.7303 28.974,-25.3517 25.352,-28.9737 21.73,-28.9734 25.352,-28.9737 21.73,-32.5951 18.109,-28.9737 18.108,-32.5951 18.108,-36.2172 14.487,-32.595 10.865,-36.217 10.866,-36.2169 7.243,-36.217 7.243,-36.2169 7.243,-39.8387 V 4236.25 l 3.622,-36.217 h -3.622 v -36.2169 l -3.621,-39.8386 -3.622,-36.217 -7.243,-36.2169 -7.243,-36.217 -10.866,-36.2169 -14.486,-36.217 -14.487,-36.2169 -14.487,-32.5952 -18.108,-32.5953 -18.109,-32.5952 -21.73,-28.9736 -25.352,-32.5952 -21.73,-28.9736 -25.352,-25.3519 -28.974,-25.3518 -28.973,-25.3519 -28.974,-21.7302 -28.973,-21.7301 -32.596,-18.1085 -32.595,-21.7301 -36.217,-14.4868 -32.595,-14.4868 -36.217,-10.8651 -36.217,-10.8651 -36.217,-10.8651 -36.217,-7.2434 -36.217,-3.6216 -39.838,-3.6217 h -36.217 v 0 h -36.217 l -39.839,3.6217 -36.217,7.2434 -36.217,3.6216 -36.217,10.8651 -36.217,10.8651 -36.216,10.8651 -36.218,14.4868 -32.595,18.1084 -32.595,18.1085 -32.595,18.1085 -28.974,21.7301 -32.595,21.7302 -28.974,25.3519 -25.351,25.3518 -25.352,28.9736 -25.352,25.3519 -21.73,32.5952 -21.731,28.9736 -18.108,32.5952 -21.73,32.5953 -14.487,32.5952 -14.486,36.2169 -10.866,36.217 -10.865,36.2169 -10.865,36.217 -3.622,36.2169 -7.243,36.217 -3.622,39.8386 z m 0,717.0954 z m 1434.191,-1434.1908 z" /><g
         id="g3467"
         transform="matrix(36.216943,0,0,36.216943,-5829.378,-1138.3444)"><path
           inkscape:connector-curvature="0"
           id="path3469"
           style="fill:none;stroke:#af5c24;stroke-width:0.99049997;stroke-linecap:butt;stroke-linejoin:miter;stroke-miterlimit:7.66129017;stroke-dasharray:none;stroke-opacity:1"
           d="m 468.6,147.4 v 0 1 l 0.1,1 0.2,1.1 0.1,1 0.3,1 0.3,1 0.3,1 0.4,0.9 0.4,1 0.6,0.9 0.5,0.8 0.6,0.9 0.6,0.8 0.7,0.8 0.7,0.8 0.7,0.7 0.8,0.6 0.9,0.7 0.8,0.6 0.9,0.5 0.9,0.5 0.9,0.5 1,0.4 1,0.3 1,0.3 1,0.2 1,0.2 1,0.1 1,0.1 1.1,0.1 v 0 l 1,-0.1 1.1,-0.1 1,-0.1 1,-0.2 1,-0.2 1,-0.3 1,-0.3 0.9,-0.4 1,-0.5 0.9,-0.5 0.9,-0.5 0.8,-0.6 0.8,-0.7 0.8,-0.6 0.8,-0.7 0.7,-0.8 0.6,-0.8 0.7,-0.8 0.6,-0.9 0.5,-0.8 0.5,-0.9 0.5,-1 0.4,-0.9 0.3,-1 0.3,-1 0.2,-1 0.2,-1 0.2,-1.1 v -1 l 0.1,-1 h -0.1 v -1 l -0.1,-1.1 -0.1,-1 -0.2,-1 -0.2,-1 -0.3,-1 -0.4,-1 -0.4,-1 -0.4,-0.9 -0.5,-0.9 -0.5,-0.9 -0.6,-0.8 -0.7,-0.9 -0.6,-0.8 -0.7,-0.7 -0.8,-0.7 -0.8,-0.7 -0.8,-0.6 -0.8,-0.6 -0.9,-0.5 -0.9,-0.6 -1,-0.4 -0.9,-0.4 -1,-0.3 -1,-0.3 -1,-0.3 -1,-0.2 -1,-0.1 -1.1,-0.1 h -1 v 0 h -1 l -1.1,0.1 -1,0.2 -1,0.1 -1,0.3 -1,0.3 -1,0.3 -1,0.4 -0.9,0.5 -0.9,0.5 -0.9,0.5 -0.8,0.6 -0.9,0.6 -0.8,0.7 -0.7,0.7 -0.7,0.8 -0.7,0.7 -0.6,0.9 -0.6,0.8 -0.5,0.9 -0.6,0.9 -0.4,0.9 -0.4,1 -0.3,1 -0.3,1 -0.3,1 -0.1,1 -0.2,1 -0.1,1.1 z" /></g><g
         id="g3471"
         transform="matrix(36.216943,0,0,36.216943,-5829.378,-1138.3444)"><path
           inkscape:connector-curvature="0"
           id="path3473"
           style="fill:none;stroke:#af5c24;stroke-width:0.99049997;stroke-linecap:butt;stroke-linejoin:miter;stroke-miterlimit:7.66129017;stroke-dasharray:none;stroke-opacity:1"
           d="M 468.6,167.2 Z" /></g><g
         id="g3475"
         transform="matrix(36.216943,0,0,36.216943,-5829.378,-1138.3444)"><path
           inkscape:connector-curvature="0"
           id="path3477"
           style="fill:none;stroke:#af5c24;stroke-width:0.99049997;stroke-linecap:butt;stroke-linejoin:miter;stroke-miterlimit:7.66129017;stroke-dasharray:none;stroke-opacity:1"
           d="M 508.2,127.6 Z" /></g><g
         id="g3479"
         transform="matrix(36.216943,0,0,36.216943,-5829.378,-1138.3444)"><text
   id="text3481"
   style="font-variant:normal;font-weight:bold;font-size:28px;line-height:0%;font-family:Carlito;-inkscape-font-specification:Carlito-Bold;writing-mode:lr-tb;fill:#000000;fill-opacity:1;fill-rule:nonzero;stroke:none"
   transform="matrix(1,0,0,-1,481.3,136.1)"><tspan
     id="tspan3483"
     y="0"
     x="0">3</tspan></text>

</g><path
         inkscape:connector-curvature="0"
         id="path3485"
         style="fill:#ed7d31;fill-opacity:1;fill-rule:evenodd;stroke:none;stroke-width:36.21694183"
         d="m 6147.5648,12421.279 v 0 39.839 l 3.6217,36.217 3.6217,36.217 7.2435,36.217 7.2434,39.838 10.8652,36.217 14.4864,32.595 14.4869,36.217 14.4869,32.596 18.1086,32.595 21.7299,32.595 18.1086,32.595 25.352,28.974 21.7299,28.973 25.352,25.352 28.9734,25.352 28.9737,25.352 28.9734,21.73 32.5955,21.73 32.595,18.109 32.5955,21.73 32.5951,14.487 36.2172,14.487 32.595,14.487 36.2168,7.243 36.2172,10.865 39.8385,7.243 36.2172,3.622 36.2168,3.622 h 36.2168 v 0 h 39.8389 l 36.2167,-3.622 36.2168,-3.622 39.8389,-7.243 36.2168,-10.865 36.2172,-7.243 32.5951,-14.487 36.2168,-14.487 32.5954,-14.487 32.5951,-21.73 32.5955,-18.109 32.595,-21.73 28.9738,-21.73 28.9733,-25.352 28.9738,-25.352 25.3516,-25.352 21.7303,-28.973 25.3517,-28.974 18.1086,-32.595 21.7303,-32.595 18.1086,-32.595 14.4864,-32.596 14.4869,-36.217 14.4869,-32.595 10.8651,-36.217 7.2431,-39.838 7.2434,-36.217 3.6217,-36.217 3.6217,-36.217 v -39.839 0 -36.217 l -3.6217,-36.217 -7.2434,-39.838 -3.6217,-36.217 -10.8648,-36.217 -10.8651,-36.217 -10.8652,-36.217 -14.4869,-32.595 -14.4864,-36.217 -18.1086,-32.596 -21.7303,-28.973 -21.73,-32.595 -21.7303,-28.974 -25.352,-28.974 -25.3516,-25.351 -25.3521,-28.974 -28.9733,-21.73 -28.9738,-25.352 -32.595,-21.73 -32.5955,-18.109 -32.5951,-18.108 -32.5954,-14.487 -36.2168,-14.487 -36.2168,-14.487 -36.2172,-10.864 -32.5951,-7.244 -39.8389,-7.243 -36.2168,-3.622 -36.2167,-3.622 -39.8389,-3.621 v 3.621 h -36.2168 l -36.2168,3.622 -36.2172,3.622 -39.8385,7.243 -36.2172,10.865 -36.2168,7.243 -32.595,14.487 -36.2172,14.487 -32.5951,14.487 -32.5955,18.108 -32.595,18.109 -32.5955,21.73 -28.9734,25.352 -28.9737,21.73 -25.3516,28.974 -25.3521,25.351 -25.3516,28.974 -21.7303,28.974 -21.7303,32.595 -21.7299,28.973 -18.1086,32.596 -14.4869,36.217 -14.4869,32.595 -14.4864,36.217 -10.8652,36.217 -7.2434,36.217 -7.2435,36.217 -3.6217,39.838 -3.6217,36.217 z m 0,717.096 z m 1434.191,-1434.191 z" /><g
         id="g3487"
         transform="matrix(36.216943,0,0,36.216943,-5829.378,-1138.3444)"><path
           inkscape:connector-curvature="0"
           id="path3489"
           style="fill:none;stroke:#af5c24;stroke-width:0.99049997;stroke-linecap:butt;stroke-linejoin:miter;stroke-miterlimit:7.66129017;stroke-dasharray:none;stroke-opacity:1"
           d="m 330.7,374.4 v 0 1.1 l 0.1,1 0.1,1 0.2,1 0.2,1.1 0.3,1 0.4,0.9 0.4,1 0.4,0.9 0.5,0.9 0.6,0.9 0.5,0.9 0.7,0.8 0.6,0.8 0.7,0.7 0.8,0.7 0.8,0.7 0.8,0.6 0.9,0.6 0.9,0.5 0.9,0.6 0.9,0.4 1,0.4 0.9,0.4 1,0.2 1,0.3 1.1,0.2 1,0.1 1,0.1 h 1 v 0 h 1.1 l 1,-0.1 1,-0.1 1.1,-0.2 1,-0.3 1,-0.2 0.9,-0.4 1,-0.4 0.9,-0.4 0.9,-0.6 0.9,-0.5 0.9,-0.6 0.8,-0.6 0.8,-0.7 0.8,-0.7 0.7,-0.7 0.6,-0.8 0.7,-0.8 0.5,-0.9 0.6,-0.9 0.5,-0.9 0.4,-0.9 0.4,-1 0.4,-0.9 0.3,-1 0.2,-1.1 0.2,-1 0.1,-1 0.1,-1 v -1.1 0 -1 l -0.1,-1 -0.2,-1.1 -0.1,-1 -0.3,-1 -0.3,-1 -0.3,-1 -0.4,-0.9 -0.4,-1 -0.5,-0.9 -0.6,-0.8 -0.6,-0.9 -0.6,-0.8 -0.7,-0.8 -0.7,-0.7 -0.7,-0.8 -0.8,-0.6 -0.8,-0.7 -0.9,-0.6 -0.9,-0.5 -0.9,-0.5 -0.9,-0.4 -1,-0.4 -1,-0.4 -1,-0.3 -0.9,-0.2 -1.1,-0.2 -1,-0.1 -1,-0.1 -1.1,-0.1 v 0.1 h -1 l -1,0.1 -1,0.1 -1.1,0.2 -1,0.3 -1,0.2 -0.9,0.4 -1,0.4 -0.9,0.4 -0.9,0.5 -0.9,0.5 -0.9,0.6 -0.8,0.7 -0.8,0.6 -0.7,0.8 -0.7,0.7 -0.7,0.8 -0.6,0.8 -0.6,0.9 -0.6,0.8 -0.5,0.9 -0.4,1 -0.4,0.9 -0.4,1 -0.3,1 -0.2,1 -0.2,1 -0.1,1.1 -0.1,1 z" /></g><g
         id="g3491"
         transform="matrix(36.216943,0,0,36.216943,-5829.378,-1138.3444)"><path
           inkscape:connector-curvature="0"
           id="path3493"
           style="fill:none;stroke:#af5c24;stroke-width:0.99049997;stroke-linecap:butt;stroke-linejoin:miter;stroke-miterlimit:7.66129017;stroke-dasharray:none;stroke-opacity:1"
           d="M 330.7,394.2 Z" /></g><g
         id="g3495"
         transform="matrix(36.216943,0,0,36.216943,-5829.378,-1138.3444)"><path
           inkscape:connector-curvature="0"
           id="path3497"
           style="fill:none;stroke:#af5c24;stroke-width:0.99049997;stroke-linecap:butt;stroke-linejoin:miter;stroke-miterlimit:7.66129017;stroke-dasharray:none;stroke-opacity:1"
           d="M 370.3,354.6 Z" /></g><g
         id="g3499"
         transform="matrix(36.216943,0,0,36.216943,-5829.378,-1138.3444)"><text
   id="text3501"
   style="font-variant:normal;font-weight:bold;font-size:28px;line-height:0%;font-family:Carlito;-inkscape-font-specification:Carlito-Bold;writing-mode:lr-tb;fill:#000000;fill-opacity:1;fill-rule:nonzero;stroke:none"
   transform="matrix(1,0,0,-1,343.4,363.2)"><tspan
     id="tspan3503"
     y="0"
     x="0">1</tspan></text>

</g><path
         inkscape:connector-curvature="0"
         id="path3505"
         style="fill:#4472c4;fill-opacity:1;fill-rule:evenodd;stroke:none;stroke-width:36.21694183"
         d="M 5644.1495,9842.6326 H 5068.2998 V 10965.358 H 6216.377 V 9842.6326 Z" /><g
         id="g3507"
         transform="matrix(36.216943,0,0,36.216943,-5829.378,-1138.3444)"><path
           inkscape:connector-curvature="0"
           id="path3509"
           style="fill:none;stroke:#325490;stroke-width:0.99049997;stroke-linecap:butt;stroke-linejoin:miter;stroke-miterlimit:7.66129017;stroke-dasharray:none;stroke-opacity:1"
           d="m 316.8,303.2 h -15.9 v 31 h 31.7 v -31 z" /></g><g
         id="g3511"
         transform="matrix(36.216943,0,0,36.216943,-5829.378,-1138.3444)"><text
   id="text3513"
   style="font-variant:normal;font-weight:bold;font-size:18px;line-height:0%;font-family:Carlito;-inkscape-font-specification:Carlito-Bold;writing-mode:lr-tb;fill:#000000;fill-opacity:1;fill-rule:nonzero;stroke:none"
   transform="matrix(1,0,0,-1,311.3,311.5)"><tspan
     id="tspan3515"
     y="0"
     x="0">A</tspan></text>

</g><path
         inkscape:connector-curvature="0"
         id="path3517"
         style="fill:#4472c4;fill-opacity:1;fill-rule:evenodd;stroke:none;stroke-width:36.21694183"
         d="m 8248.1476,9842.6326 h -572.2275 v 1122.7254 h 1144.455 V 9842.6326 Z" /><g
         id="g3519"
         transform="matrix(36.216943,0,0,36.216943,-5829.378,-1138.3444)"><path
           inkscape:connector-curvature="0"
           id="path3521"
           style="fill:none;stroke:#325490;stroke-width:0.99049997;stroke-linecap:butt;stroke-linejoin:miter;stroke-miterlimit:7.66129017;stroke-dasharray:none;stroke-opacity:1"
           d="m 388.7,303.2 h -15.8 v 31 h 31.6 v -31 z" /></g><g
         id="g3523"
         transform="matrix(36.216943,0,0,36.216943,-5829.378,-1138.3444)"><text
   id="text3525"
   style="font-variant:normal;font-weight:bold;font-size:18px;line-height:0%;font-family:Carlito;-inkscape-font-specification:Carlito-Bold;writing-mode:lr-tb;fill:#000000;fill-opacity:1;fill-rule:nonzero;stroke:none"
   transform="matrix(1,0,0,-1,383.7,311.5)"><tspan
     id="tspan3527"
     y="0"
     x="0">B</tspan></text>

</g><path
         inkscape:connector-curvature="0"
         id="path3529"
         style="fill:#4472c4;fill-opacity:1;fill-rule:evenodd;stroke:none;stroke-width:36.21694183"
         d="M 4401.9082,5634.2239 H 3826.0588 V 6756.9491 H 4974.1359 V 5634.2239 Z" /><g
         id="g3531"
         transform="matrix(36.216943,0,0,36.216943,-5829.378,-1138.3444)"><path
           inkscape:connector-curvature="0"
           id="path3533"
           style="fill:none;stroke:#325490;stroke-width:0.99049997;stroke-linecap:butt;stroke-linejoin:miter;stroke-miterlimit:7.66129017;stroke-dasharray:none;stroke-opacity:1"
           d="m 282.5,187 h -15.9 v 31 h 31.7 v -31 z" /></g><g
         id="g3535"
         transform="matrix(36.216943,0,0,36.216943,-5829.378,-1138.3444)"><text
   id="text3537"
   style="font-variant:normal;font-weight:bold;font-size:18px;line-height:0%;font-family:Carlito;-inkscape-font-specification:Carlito-Bold;writing-mode:lr-tb;fill:#000000;fill-opacity:1;fill-rule:nonzero;stroke:none"
   transform="matrix(1,0,0,-1,277,195.3)"><tspan
     id="tspan3539"
     y="0"
     x="0">A</tspan></text>

</g><path
         inkscape:connector-curvature="0"
         id="path3541"
         style="fill:#4472c4;fill-opacity:1;fill-rule:evenodd;stroke:none;stroke-width:36.21694183"
         d="M 5644.1495,3555.3714 H 5068.2998 V 4678.0966 H 6216.377 V 3555.3714 Z" /><g
         id="g3543"
         transform="matrix(36.216943,0,0,36.216943,-5829.378,-1138.3444)"><path
           inkscape:connector-curvature="0"
           id="path3545"
           style="fill:none;stroke:#325490;stroke-width:0.99049997;stroke-linecap:butt;stroke-linejoin:miter;stroke-miterlimit:7.66129017;stroke-dasharray:none;stroke-opacity:1"
           d="m 316.8,129.6 h -15.9 v 31 h 31.7 v -31 z" /></g><g
         id="g3547"
         transform="matrix(36.216943,0,0,36.216943,-5829.378,-1138.3444)"><text
   id="text3549"
   style="font-variant:normal;font-weight:bold;font-size:18px;line-height:0%;font-family:Carlito;-inkscape-font-specification:Carlito-Bold;writing-mode:lr-tb;fill:#000000;fill-opacity:1;fill-rule:nonzero;stroke:none"
   transform="matrix(1,0,0,-1,311.7,137.9)"><tspan
     id="tspan3551"
     y="0"
     x="0">B</tspan></text>

</g><path
         inkscape:connector-curvature="0"
         id="path3553"
         style="fill:#4472c4;fill-opacity:1;fill-rule:evenodd;stroke:none;stroke-width:36.21694183"
         d="m 9921.37,3555.3714 h -572.227 v 1122.7252 h 1144.455 V 3555.3714 Z" /><g
         id="g3555"
         transform="matrix(36.216943,0,0,36.216943,-5829.378,-1138.3444)"><path
           inkscape:connector-curvature="0"
           id="path3557"
           style="fill:none;stroke:#325490;stroke-width:0.99049997;stroke-linecap:butt;stroke-linejoin:miter;stroke-miterlimit:7.66129017;stroke-dasharray:none;stroke-opacity:1"
           d="m 434.9,129.6 h -15.8 v 31 h 31.6 v -31 z" /></g><g
         id="g3559"
         transform="matrix(36.216943,0,0,36.216943,-5829.378,-1138.3444)"><text
   id="text3561"
   style="font-variant:normal;font-weight:bold;font-size:18px;line-height:0%;font-family:Carlito;-inkscape-font-specification:Carlito-Bold;writing-mode:lr-tb;fill:#000000;fill-opacity:1;fill-rule:nonzero;stroke:none"
   transform="matrix(1,0,0,-1,429.9,137.9)"><tspan
     id="tspan3563"
     y="0"
     x="0">B</tspan></text>

</g><path
         inkscape:connector-curvature="0"
         id="path3565"
         style="fill:#4472c4;fill-opacity:1;fill-rule:evenodd;stroke:none;stroke-width:36.21694183"
         d="M 10902.849,5804.4435 H 10327 v 1119.1034 h 1148.077 V 5804.4435 Z" /><g
         id="g3567"
         transform="matrix(36.216943,0,0,36.216943,-5829.378,-1138.3444)"><path
           inkscape:connector-curvature="0"
           id="path3569"
           style="fill:none;stroke:#325490;stroke-width:0.99049997;stroke-linecap:butt;stroke-linejoin:miter;stroke-miterlimit:7.66129017;stroke-dasharray:none;stroke-opacity:1"
           d="m 462,191.7 h -15.9 v 30.9 h 31.7 v -30.9 z" /></g><g
         id="g3571"
         transform="matrix(36.216943,0,0,36.216943,-5829.378,-1138.3444)"><text
   id="text3573"
   style="font-variant:normal;font-weight:bold;font-size:18px;line-height:0%;font-family:Carlito;-inkscape-font-specification:Carlito-Bold;writing-mode:lr-tb;fill:#000000;fill-opacity:1;fill-rule:nonzero;stroke:none"
   transform="matrix(1,0,0,-1,456.5,199.9)"><tspan
     id="tspan3575"
     y="0"
     x="0">A</tspan></text>

</g><path
         inkscape:connector-curvature="0"
         id="path3577"
         style="fill:#4472c4;fill-opacity:1;fill-rule:evenodd;stroke:none;stroke-width:36.21694183"
         d="m 3713.7863,4659.9884 684.5003,974.2355 z m 0,0 z m 684.5003,974.2355 z" /><g
         id="g3579"
         transform="matrix(36.216943,0,0,36.216943,-5829.378,-1138.3444)"><path
           inkscape:connector-curvature="0"
           id="path3581"
           style="fill:none;stroke:#000000;stroke-width:0.99049997;stroke-linecap:butt;stroke-linejoin:round;stroke-miterlimit:10;stroke-dasharray:none;stroke-opacity:1"
           d="m 263.5,160.1 15.7,22.4" /></g><path
         inkscape:connector-curvature="0"
         id="path3583"
         style="fill:#000000;fill-opacity:1;fill-rule:evenodd;stroke:none;stroke-width:36.21694183"
         d="m 4398.2866,5634.2239 -32.5953,-235.4101 -39.8386,130.3811 -137.6244,-7.2435 z" /><path
         inkscape:connector-curvature="0"
         id="path3585"
         style="fill:#4472c4;fill-opacity:1;fill-rule:evenodd;stroke:none;stroke-width:36.21694183"
         d="m 3923.8446,4149.3293 1148.0769,-36.2169 z m 0,0 z m 1148.0769,-36.2169 z" /><g
         id="g3587"
         transform="matrix(36.216943,0,0,36.216943,-5829.378,-1138.3444)"><path
           inkscape:connector-curvature="0"
           id="path3589"
           style="fill:none;stroke:#000000;stroke-width:0.99049997;stroke-linecap:butt;stroke-linejoin:round;stroke-miterlimit:10;stroke-dasharray:none;stroke-opacity:1"
           d="m 269.3,146 26.1,-0.8" /></g><path
         inkscape:connector-curvature="0"
         id="path3591"
         style="fill:#000000;fill-opacity:1;fill-rule:evenodd;stroke:none;stroke-width:36.21694183"
         d="m 5071.9215,4113.1124 -220.9232,-97.7858 90.5426,105.0292 -83.2992,108.6508 z" /><path
         inkscape:connector-curvature="0"
         id="path3593"
         style="fill:#4472c4;fill-opacity:1;fill-rule:evenodd;stroke:none;stroke-width:36.21694183"
         d="m 6354.0015,11914.242 -713.4737,-948.884 z m 0,0 z m -713.4737,-948.884 z" /><g
         id="g3595"
         transform="matrix(36.216943,0,0,36.216943,-5829.378,-1138.3444)"><path
           inkscape:connector-curvature="0"
           id="path3597"
           style="fill:none;stroke:#000000;stroke-width:0.99049997;stroke-linecap:butt;stroke-linejoin:round;stroke-miterlimit:10;stroke-dasharray:none;stroke-opacity:1"
           d="M 336.4,360.4 320.1,338.6" /></g><path
         inkscape:connector-curvature="0"
         id="path3599"
         style="fill:#000000;fill-opacity:1;fill-rule:evenodd;stroke:none;stroke-width:36.21694183"
         d="m 5640.5278,10965.358 43.4602,235.41 36.2168,-134.003 137.6245,7.244 z" /><path
         inkscape:connector-curvature="0"
         id="path3601"
         style="fill:#4472c4;fill-opacity:1;fill-rule:evenodd;stroke:none;stroke-width:36.21694183"
         d="m 7371.6977,11914.242 876.4499,-948.884 z m 0,0 z m 876.4499,-948.884 z" /><g
         id="g3603"
         transform="matrix(36.216943,0,0,36.216943,-5829.378,-1138.3444)"><path
           inkscape:connector-curvature="0"
           id="path3605"
           style="fill:none;stroke:#000000;stroke-width:0.99049997;stroke-linecap:butt;stroke-linejoin:round;stroke-miterlimit:10;stroke-dasharray:none;stroke-opacity:1"
           d="M 364.5,360.4 385,338.3" /></g><path
         inkscape:connector-curvature="0"
         id="path3607"
         style="fill:#000000;fill-opacity:1;fill-rule:evenodd;stroke:none;stroke-width:36.21694183"
         d="m 8248.1476,10965.358 -224.545,83.299 137.6241,10.865 21.7304,137.625 z" /><path
         inkscape:connector-curvature="0"
         id="path3609"
         style="fill:#4472c4;fill-opacity:1;fill-rule:evenodd;stroke:none;stroke-width:36.21694183"
         d="m 11348.318,4707.0703 -445.469,1097.3732 z m 0,0 z m -445.469,1097.3732 z" /><g
         id="g3611"
         transform="matrix(36.216943,0,0,36.216943,-5829.378,-1138.3444)"><path
           inkscape:connector-curvature="0"
           id="path3613"
           style="fill:none;stroke:#000000;stroke-width:0.99049997;stroke-linecap:butt;stroke-linejoin:round;stroke-miterlimit:10;stroke-dasharray:none;stroke-opacity:1"
           d="m 474.3,161.4 -10.2,25.1" /></g><path
         inkscape:connector-curvature="0"
         id="path3615"
         style="fill:#000000;fill-opacity:1;fill-rule:evenodd;stroke:none;stroke-width:36.21694183"
         d="m 10902.849,5804.4435 181.085,-159.3544 -134.002,36.2167 -65.191,-119.5159 z" /><path
         inkscape:connector-curvature="0"
         id="path3617"
         style="fill:#4472c4;fill-opacity:1;fill-rule:evenodd;stroke:none;stroke-width:36.21694183"
         d="m 11141.881,4200.033 -644.661,-83.2989 z m 0,0 z m -644.661,-83.2989 z" /><g
         id="g3619"
         transform="matrix(36.216943,0,0,36.216943,-5829.378,-1138.3444)"><path
           inkscape:connector-curvature="0"
           id="path3621"
           style="fill:none;stroke:#000000;stroke-width:0.99049997;stroke-linecap:butt;stroke-linejoin:round;stroke-miterlimit:10;stroke-dasharray:none;stroke-opacity:1"
           d="m 468.6,147.4 -12.3,-1.6" /></g><path
         inkscape:connector-curvature="0"
         id="path3623"
         style="fill:#000000;fill-opacity:1;fill-rule:evenodd;stroke:none;stroke-width:36.21694183"
         d="m 10497.22,4116.7341 199.193,134.0026 -72.434,-119.5159 101.407,-94.164 z" /><g
         id="g3625"
         transform="matrix(36.216943,0,0,36.216943,-5829.378,-1138.3444)"><path
           inkscape:connector-curvature="0"
           id="path3627"
           style="fill:none;stroke:#000000;stroke-width:0.99049997;stroke-linecap:butt;stroke-linejoin:round;stroke-miterlimit:10;stroke-dasharray:none;stroke-opacity:1"
           d="m 281.8,218.7 c -11.7,57.8 -23.3,115.7 -15.2,142.5 8.1,26.9 44.6,20.4 58.8,19.1" /></g><path
         inkscape:connector-curvature="0"
         id="path3629"
         style="fill:#000000;fill-opacity:1;fill-rule:evenodd;stroke:none;stroke-width:36.21694183"
         d="m 6143.9431,12613.229 -224.545,-83.299 97.7856,97.786 -76.0553,119.516 z" /><g
         id="g3631"
         transform="matrix(36.216943,0,0,36.216943,-5829.378,-1138.3444)"><path
           inkscape:connector-curvature="0"
           id="path3633"
           style="fill:none;stroke:#000000;stroke-width:0.99049997;stroke-linecap:butt;stroke-linejoin:round;stroke-miterlimit:10;stroke-dasharray:none;stroke-opacity:1"
           d="m 265.9,202.2 c -19.3,2.3 -38.7,4.7 -44.2,-2.7 -5.5,-7.4 1.4,-21.2 8.8,-36.6" /></g><path
         inkscape:connector-curvature="0"
         id="path3635"
         style="fill:#000000;fill-opacity:1;fill-rule:evenodd;stroke:none;stroke-width:36.21694183"
         d="m 2605.5479,4580.311 -188.3281,148.4892 134.0027,-32.595 57.9471,126.7593 z" /><g
         id="g3637"
         transform="matrix(36.216943,0,0,36.216943,-5829.378,-1138.3444)"><path
           inkscape:connector-curvature="0"
           id="path3639"
           style="fill:none;stroke:#000000;stroke-width:0.99049997;stroke-linecap:butt;stroke-linejoin:round;stroke-miterlimit:10;stroke-dasharray:none;stroke-opacity:1"
           d="M 418.5,145.4 C 383.4,114.3 348.3,83.3 321.4,80.1 294.6,76.9 278.2,98.8 260.7,121.9" /></g><path
         inkscape:connector-curvature="0"
         id="path3641"
         style="fill:#000000;fill-opacity:1;fill-rule:evenodd;stroke:none;stroke-width:36.21694183"
         d="m 3492.863,3435.8555 217.3016,-108.6508 -137.6243,3.6217 -36.217,-134.0027 z" /><g
         id="g3643"
         transform="matrix(36.216943,0,0,36.216943,-5829.378,-1138.3444)"><path
           inkscape:connector-curvature="0"
           id="path3645"
           style="fill:none;stroke:#000000;stroke-width:0.99049997;stroke-linecap:butt;stroke-linejoin:round;stroke-miterlimit:10;stroke-dasharray:none;stroke-opacity:1"
           d="m 436.2,128.2 c 6.4,-18.7 12.9,-37.4 21.1,-37.6 8.3,-0.2 16.6,15 25.8,31.5" /></g><path
         inkscape:connector-curvature="0"
         id="path3647"
         style="fill:#000000;fill-opacity:1;fill-rule:evenodd;stroke:none;stroke-width:36.21694183"
         d="m 11761.191,3457.5857 -10.865,-242.6535 -50.704,130.381 -137.624,-25.3519 z" /><g
         id="g3649"
         transform="matrix(36.216943,0,0,36.216943,-5829.378,-1138.3444)"><path
           inkscape:connector-curvature="0"
           id="path3651"
           style="fill:none;stroke:#000000;stroke-width:0.99049997;stroke-linecap:butt;stroke-linejoin:round;stroke-miterlimit:10;stroke-dasharray:none;stroke-opacity:1"
           d="m 460,223.9 c 2.6,64 5.3,128 -9.9,154.5 -15.2,26.5 -44.7,16.6 -76,6.3" /></g><path
         inkscape:connector-curvature="0"
         id="path3653"
         style="fill:#000000;fill-opacity:1;fill-rule:evenodd;stroke:none;stroke-width:36.21694183"
         d="m 7531.0521,12732.745 170.2196,170.219 -47.082,-126.759 115.8942,-76.056 z" /><g
         id="g3655"
         transform="matrix(36.216943,0,0,36.216943,-5829.378,-1138.3444)"><path
           inkscape:connector-curvature="0"
           id="path3657"
           style="fill:none;stroke:#000000;stroke-width:0.99049997;stroke-linecap:butt;stroke-linejoin:round;stroke-miterlimit:10;stroke-dasharray:none;stroke-opacity:1"
           d="m 333.3,144.7 c 26.1,18.7 52.2,37.4 75.2,39.6 23,2.2 39.8,-10 58.2,-23.2" /></g><path
         inkscape:connector-curvature="0"
         id="path3659"
         style="fill:#000000;fill-opacity:1;fill-rule:evenodd;stroke:none;stroke-width:36.21694183"
         d="m 11236.046,4580.311 -239.032,39.8385 134.002,36.2172 -7.243,137.6241 z" /><g
         id="g3661"
         transform="matrix(36.216943,0,0,36.216943,-5829.378,-1138.3444)"><path
           inkscape:connector-curvature="0"
           id="path3663"
           style="fill:none;stroke:#000000;stroke-width:0.99049997;stroke-linecap:butt;stroke-linejoin:round;stroke-miterlimit:10;stroke-dasharray:none;stroke-opacity:1"
           d="m 301,319 c -11.4,11.6 -22.8,23.2 -17.9,31.6 5,8.5 22.8,12.9 42.2,17.8" /></g><path
         inkscape:connector-curvature="0"
         id="path3665"
         style="fill:#000000;fill-opacity:1;fill-rule:evenodd;stroke:none;stroke-width:36.21694183"
         d="m 6147.5648,12254.681 -184.7065,-159.354 57.9471,126.759 -108.6507,83.299 z" /><g
         id="g3667"
         transform="matrix(36.216943,0,0,36.216943,-5829.378,-1138.3444)"><path
           inkscape:connector-curvature="0"
           id="path3669"
           style="fill:none;stroke:#000000;stroke-width:0.99049997;stroke-linecap:butt;stroke-linejoin:round;stroke-miterlimit:10;stroke-dasharray:none;stroke-opacity:1"
           d="m 315.4,302.5 c 6.6,-44.4 13.2,-88.8 5.3,-113.5 -7.9,-24.8 -26.8,-29 -47.4,-33.8" /></g><path
         inkscape:connector-curvature="0"
         id="path3671"
         style="fill:#000000;fill-opacity:1;fill-rule:evenodd;stroke:none;stroke-width:36.21694183"
         d="m 3873.1409,4435.443 188.3281,155.7331 -61.5688,-126.7593 108.6508,-83.2991 z" /><g
         id="g3673"
         transform="matrix(36.216943,0,0,36.216943,-5829.378,-1138.3444)"><path
           inkscape:connector-curvature="0"
           id="path3675"
           style="fill:none;stroke:#000000;stroke-width:0.99049997;stroke-linecap:butt;stroke-linejoin:round;stroke-miterlimit:10;stroke-dasharray:none;stroke-opacity:1"
           d="m 388,302.5 c -1.1,-28.2 -2.1,-56.3 11.9,-79.9 14.1,-23.5 40.3,-40.4 68,-58.4" /></g><path
         inkscape:connector-curvature="0"
         id="path3677"
         style="fill:#000000;fill-opacity:1;fill-rule:evenodd;stroke:none;stroke-width:36.21694183"
         d="m 11283.127,4699.8269 -239.031,25.3516 130.381,43.4607 -10.865,137.6241 z" /><g
         id="g3679"
         transform="matrix(36.216943,0,0,36.216943,-5829.378,-1138.3444)"><text
   id="text3681"
   style="font-variant:normal;font-weight:bold;line-height:0%;font-family:Carlito;-inkscape-font-specification:Carlito-Bold;writing-mode:lr-tb;fill:#000000;fill-opacity:1;fill-rule:nonzero;stroke:none"
   transform="matrix(1,0,0,-1,325.4,184)"><tspan
     id="tspan3683"
     sodipodi:role="line"
     y="0"
     x="0 8.0959997 12.384"
     style="font-size:16px;line-height:1.25">0.9</tspan></text>

</g><g
         id="g3685"
         transform="matrix(36.216943,0,0,36.216943,-5829.378,-1138.3444)"><text
   id="text3687"
   style="font-variant:normal;font-weight:bold;line-height:0%;font-family:Carlito;-inkscape-font-specification:Carlito-Bold;writing-mode:lr-tb;fill:#000000;fill-opacity:1;fill-rule:nonzero;stroke:none"
   transform="matrix(1,0,0,-1,270,316.7)"><tspan
     id="tspan3689"
     sodipodi:role="line"
     y="0"
     x="0 8.0959997 12.384"
     style="font-size:16px;line-height:1.25">0.1</tspan></text>

</g><g
         id="g3691"
         transform="matrix(36.216943,0,0,36.216943,-5829.378,-1138.3444)"><text
   id="text3693"
   style="font-variant:normal;font-weight:bold;line-height:0%;font-family:Carlito;-inkscape-font-specification:Carlito-Bold;writing-mode:lr-tb;fill:#000000;fill-opacity:1;fill-rule:nonzero;stroke:none"
   transform="matrix(1,0,0,-1,247.7,247.1)"><tspan
     id="tspan3695"
     sodipodi:role="line"
     y="0"
     x="0 8 12.288"
     style="font-size:16px;line-height:1.25">0.6</tspan></text>

</g><g
         id="g3697"
         transform="matrix(36.216943,0,0,36.216943,-5829.378,-1138.3444)"><text
   id="text3699"
   style="font-variant:normal;font-weight:bold;line-height:0%;font-family:Carlito;-inkscape-font-specification:Carlito-Bold;writing-mode:lr-tb;fill:#000000;fill-opacity:1;fill-rule:nonzero;stroke:none"
   transform="matrix(1,0,0,-1,202,207)"><tspan
     id="tspan3701"
     sodipodi:role="line"
     y="0"
     x="0 8 12.288"
     style="font-size:16px;line-height:1.25">0.4</tspan></text>

</g><g
         id="g3703"
         transform="matrix(36.216943,0,0,36.216943,-5829.378,-1138.3444)"><text
   id="text3705"
   style="font-variant:normal;font-weight:bold;line-height:0%;font-family:Carlito;-inkscape-font-specification:Carlito-Bold;writing-mode:lr-tb;fill:#000000;fill-opacity:1;fill-rule:nonzero;stroke:none"
   transform="matrix(1,0,0,-1,305,63.8)"><tspan
     id="tspan3707"
     sodipodi:role="line"
     y="0"
     x="0 8 12.288"
     style="font-size:16px;line-height:1.25">0.3</tspan></text>

</g><g
         id="g3709"
         transform="matrix(36.216943,0,0,36.216943,-5829.378,-1138.3444)"><text
   id="text3711"
   style="font-variant:normal;font-weight:bold;line-height:0%;font-family:Carlito;-inkscape-font-specification:Carlito-Bold;writing-mode:lr-tb;fill:#000000;fill-opacity:1;fill-rule:nonzero;stroke:none"
   transform="matrix(1,0,0,-1,447.5,74.4)"><tspan
     id="tspan3713"
     sodipodi:role="line"
     y="0"
     x="0 8.0959997 12.384"
     style="font-size:16px;line-height:1.25">0.7</tspan></text>

</g><g
         id="g3715"
         transform="matrix(36.216943,0,0,36.216943,-5829.378,-1138.3444)"><text
   id="text3717"
   style="font-variant:normal;font-weight:bold;line-height:0%;font-family:Carlito;-inkscape-font-specification:Carlito-Bold;writing-mode:lr-tb;fill:#808080;fill-opacity:1;fill-rule:nonzero;stroke:none"
   transform="matrix(1,0,0,-1,488.5,359.5)"><tspan
     id="tspan3719"
     sodipodi:role="line"
     y="0"
     x="0 7.9039998"
     style="font-size:16px;line-height:1.25">+5</tspan></text>

</g><g
         id="g3721"
         transform="matrix(36.216943,0,0,36.216943,-5829.378,-1138.3444)"><text
   id="text3723"
   style="font-variant:normal;font-weight:bold;line-height:0%;font-family:Carlito;-inkscape-font-specification:Carlito-Bold;writing-mode:lr-tb;fill:#808080;fill-opacity:1;fill-rule:nonzero;stroke:none"
   transform="matrix(1,0,0,-1,380.3,44.7)"><tspan
     id="tspan3725"
     sodipodi:role="line"
     y="0"
     x="0 4.8959999 12.896"
     style="font-size:16px;line-height:1.25">-10</tspan></text>

</g><g
         id="g3727"
         transform="matrix(36.216943,0,0,36.216943,-5829.378,-1138.3444)"><text
   id="text3729"
   style="font-variant:normal;font-weight:bold;line-height:0%;font-family:Carlito;-inkscape-font-specification:Carlito-Bold;writing-mode:lr-tb;fill:#808080;fill-opacity:1;fill-rule:nonzero;stroke:none"
   transform="matrix(1,0,0,-1,212.6,363.5)"><tspan
     id="tspan3731"
     sodipodi:role="line"
     y="0"
     x="0 7.9039998"
     style="font-size:16px;line-height:1.25">+1</tspan></text>

</g></g></g></svg>