<?xml version="1.0" encoding="UTF-8" standalone="no"?>
<!-- Created with Inkscape (http://www.inkscape.org/) -->

<svg
   xmlns:dc="http://purl.org/dc/elements/1.1/"
   xmlns:cc="http://creativecommons.org/ns#"
   xmlns:rdf="http://www.w3.org/1999/02/22-rdf-syntax-ns#"
   xmlns:svg="http://www.w3.org/2000/svg"
   xmlns="http://www.w3.org/2000/svg"
   xmlns:sodipodi="http://sodipodi.sourceforge.net/DTD/sodipodi-0.dtd"
   xmlns:inkscape="http://www.inkscape.org/namespaces/inkscape"
   version="1.1"
   id="svg2"
   width="359.82513"
   height="228.50769"
   viewBox="0 0 359.82513 228.50769"
   sodipodi:docname="drone.svg"
   inkscape:version="0.92.3 (2405546, 2018-03-11)">
  <metadata
     id="metadata8">
    <rdf:RDF>
      <cc:Work
         rdf:about="">
        <dc:format>image/svg+xml</dc:format>
        <dc:type
           rdf:resource="http://purl.org/dc/dcmitype/StillImage" />
        <dc:title></dc:title>
      </cc:Work>
    </rdf:RDF>
  </metadata>
  <defs
     id="defs6" />
  <sodipodi:namedview
     pagecolor="#ffffff"
     bordercolor="#666666"
     borderopacity="1"
     objecttolerance="10"
     gridtolerance="10"
     guidetolerance="10"
     inkscape:pageopacity="0"
     inkscape:pageshadow="2"
     inkscape:window-width="1920"
     inkscape:window-height="1052"
     id="namedview4"
     showgrid="false"
     inkscape:zoom="1.1184834"
     inkscape:cx="51.184004"
     inkscape:cy="127.90605"
     inkscape:window-x="1920"
     inkscape:window-y="0"
     inkscape:window-maximized="1"
     inkscape:current-layer="svg2"
     fit-margin-top="0"
     fit-margin-left="0"
     fit-margin-right="0"
     fit-margin-bottom="0"
     inkscape:pagecheckerboard="true" />
  <path
     style="fill:#000000;stroke-width:0.87188876"
     d="m 322.15248,227.9283 c -12.17674,-1.90719 -29.89256,-8.25175 -44.15711,-15.81395 -8.79701,-4.66365 -24.31975,-14.48101 -27.82209,-17.59607 -2.0155,-1.79264 -2.07475,-1.79776 -1.44998,-0.12527 1.51138,4.046 2.44834,11.72491 1.88723,15.4667 -3.09822,20.66042 -36.2361,21.71813 -75.93397,2.42371 -32.38455,-15.7399 -62.85815,-42.33909 -74.21929,-64.78303 -3.911226,-7.72665 -5.898826,-15.56575 -5.213826,-20.56334 0.66067,-4.82015 3.99676,-10.67905 6.994106,-12.28318 1.23859,-0.66287 2.25197,-1.43991 2.25197,-1.72677 0,-0.28683 -3.23689,-1.6427 -7.193076,-3.01301 C 87.349434,106.46874 70.865064,98.395856 60.459134,91.873776 23.106364,68.462312 -2.7631562,35.77073 0.23621381,15.769444 1.0786138,10.151988 4.8722338,5.4223663 10.915984,2.4547103 c 4.78403,-2.34909601 5.70544,-2.49036901 15.97545,-2.44941401 12.56104,0.05015 22.34438,2.19687201 37.68442,8.26916701 14.4118,5.7048457 37.144966,18.6170737 45.056196,25.5914867 l 2.09093,1.843319 -0.62398,-2.17972 c -1.69817,-5.932155 -2.20977,-8.539052 -2.22438,-11.33455 -0.1439,-27.5464227 44.51406,-26.2926827 92.39454,2.593903 13.46221,8.121826 24.51963,16.603503 35.18527,26.989096 20.32721,19.793491 30.40766,38.470558 27.73563,51.388572 -1.04625,5.05805 -4.32164,10.12451 -7.11943,11.0125 -0.95941,0.3045 -1.74336,0.82145 -1.7421,1.1488 6.5e-4,0.32734 3.23814,1.72306 7.19307,3.10161 44.66168,15.56733 90.68543,56.00023 96.65791,84.91617 3.18617,15.42592 -5.5119,24.50155 -24.07544,25.12049 -4.31585,0.1439 -10.14406,-0.0981 -12.95159,-0.53787 z m 15.17807,-9.24281 c 15.79787,-6.32106 11.43143,-27.65788 -10.44496,-51.03988 -30.57833,-32.68284 -81.85096,-55.26086 -101.85693,-44.85295 -4.12485,2.14592 -8.0655,8.01058 -8.0655,12.00348 0,0.40652 12.65329,7.08112 28.11841,14.83242 21.55535,10.80379 28.80117,14.0527 31.04356,13.91939 5.96861,-0.35483 15.38046,6.4572 14.77529,10.69393 -0.39808,2.78689 -5.87734,2.15302 -10.94334,-1.26598 -3.51352,-2.37123 -60.52641,-31.33211 -61.68097,-31.33211 -1.0814,0 -0.19994,2.76748 2.93058,9.20095 8.00927,16.45972 23.16219,32.14213 45.43617,47.02386 16.31974,10.90358 37.4515,20.04401 51.41896,22.24098 6.18176,0.97233 14.88751,0.32892 19.26873,-1.42409 z M 224.00051,217.4863 c 20.36723,-3.86258 18.05342,-26.21596 -5.36173,-51.79918 -7.4753,-8.16745 -18.68134,-17.55965 -29.89682,-25.05767 -5.69113,-3.80472 -10.47509,-6.79011 -10.63103,-6.63415 -0.15595,0.15593 -0.35752,7.77191 -0.44794,16.92439 -0.15663,15.85528 -0.0748,16.76195 1.73218,19.20611 2.20719,2.98538 1.67751,5.52164 -1.15314,5.52164 -3.01264,0 -10.78687,-4.25985 -12.71436,-6.96675 -3.31012,-4.64865 -1.75652,-6.91765 3.70418,-5.40988 l 2.99675,0.82745 0.56382,-16.20323 c 0.31012,-8.91178 0.27238,-16.49379 -0.0839,-16.84893 -1.73643,-1.73109 -19.91689,-9.02879 -27.24025,-10.93433 -11.06082,-2.87804 -22.33719,-3.10229 -27.90042,-0.55487 -10.66383,4.88298 -12.26325,14.83802 -4.78215,29.76481 13.30244,26.54194 52.45186,56.24563 87.02815,66.03052 10.35575,2.93062 16.92845,3.51054 24.18665,2.13407 z m 18.36258,-108.68615 c 4.79704,-1.9194 8.35758,-6.33429 9.09971,-11.283224 1.68209,-11.21691 -6.69483,-26.702085 -23.55132,-43.535858 C 194.5339,20.648477 142.88496,0.67990829 127.04996,14.985881 c -4.00921,3.622083 -5.48838,7.773256 -4.8778,13.689206 1.84755,17.900965 23.90832,43.422594 53.74322,62.174329 l 7.48006,4.70135 0.57754,-4.20001 c 0.31765,-2.310013 0.61191,-9.244346 0.65392,-15.409635 l 0.0764,-11.209627 -4.44189,-4.170261 c -4.9743,-4.670127 -5.44038,-7.228262 -1.40169,-7.69334 5.06102,-0.582797 14.56246,6.174226 14.56246,10.356193 0,1.047606 -0.8113,1.863898 -2.19859,2.212083 l -2.1986,0.551814 0.23684,16.248654 0.23686,16.248659 3.92349,1.926754 c 18.90338,9.28305 38.36697,12.61898 48.94093,8.3881 z m -109.21702,-2.54544 c 5.37684,-2.24659 9.70655,-7.653404 9.70655,-12.121294 0,-1.64199 -58.336196,-30.959616 -61.603446,-30.959616 -7.19873,0 -17.22684,-10.867661 -11.65884,-12.634884 2.20831,-0.700886 8.40834,2.04022 12.27438,5.426643 3.21075,2.812443 59.115576,31.168429 59.901056,30.382938 0.76684,-0.766835 -2.44837,-8.402304 -6.04225,-14.34908 C 125.68721,55.392324 107.98008,39.052513 85.430134,25.589621 63.655254,12.589467 40.221524,5.5680003 27.454654,8.2183883 10.479794,11.742358 8.4228738,26.531975 22.057624,47.023749 46.410694,83.624149 108.314,116.63021 133.14607,106.25471 Z"
     id="path817-3"
     inkscape:connector-curvature="0"
     sodipodi:nodetypes="csscsssscscssscsccccssscccscccscsscccssssccsscccssccscssssccsssssccscccsccccscssscccsssss" />
</svg>
