<?xml version="1.0" encoding="UTF-8" standalone="no"?>
<!-- Created with Inkscape (http://www.inkscape.org/) -->

<svg
   xmlns:dc="http://purl.org/dc/elements/1.1/"
   xmlns:cc="http://creativecommons.org/ns#"
   xmlns:rdf="http://www.w3.org/1999/02/22-rdf-syntax-ns#"
   xmlns:svg="http://www.w3.org/2000/svg"
   xmlns="http://www.w3.org/2000/svg"
   xmlns:sodipodi="http://sodipodi.sourceforge.net/DTD/sodipodi-0.dtd"
   xmlns:inkscape="http://www.inkscape.org/namespaces/inkscape"
   version="1.1"
   id="svg2"
   width="27.711973"
   height="27.619139"
   viewBox="0 0 27.711973 27.619138"
   sodipodi:docname="integration.svg"
   inkscape:version="0.92.3 (2405546, 2018-03-11)">
  <metadata
     id="metadata8">
    <rdf:RDF>
      <cc:Work
         rdf:about="">
        <dc:format>image/svg+xml</dc:format>
        <dc:type
           rdf:resource="http://purl.org/dc/dcmitype/StillImage" />
        <dc:title></dc:title>
      </cc:Work>
    </rdf:RDF>
  </metadata>
  <defs
     id="defs6" />
  <sodipodi:namedview
     pagecolor="#ffffff"
     bordercolor="#666666"
     borderopacity="1"
     objecttolerance="10"
     gridtolerance="10"
     guidetolerance="10"
     inkscape:pageopacity="0"
     inkscape:pageshadow="2"
     inkscape:window-width="1920"
     inkscape:window-height="1053"
     id="namedview4"
     showgrid="false"
     fit-margin-top="0"
     fit-margin-left="0"
     fit-margin-right="0"
     fit-margin-bottom="0"
     inkscape:pagecheckerboard="true"
     inkscape:zoom="27.656252"
     inkscape:cx="5.8310076"
     inkscape:cy="15.935208"
     inkscape:window-x="0"
     inkscape:window-y="27"
     inkscape:window-maximized="1"
     inkscape:current-layer="svg2" />
  <path
     style="fill:#000000;stroke-width:0.02133333"
     d="M 10.768788,25.91247 C 9.076689,24.972077 7.691889,24.197392 7.691455,24.190945 c -4.33e-4,-0.0064 0.489847,-0.283633 1.089513,-0.615968 l 1.090301,-0.604248 0.0777,0.04325 c 2.074865,1.155008 3.892078,2.159352 3.907031,2.159352 0.01495,0 1.832167,-1.004344 3.907032,-2.159352 l 0.0777,-0.04325 1.090301,0.604248 c 0.599667,0.332335 1.089952,0.609521 1.089525,0.615968 -6.83e-4,0.01039 -6.130311,3.420375 -6.162357,3.428191 -0.0071,0.0017 -1.397311,-0.766274 -3.089411,-1.706666 z M 2.656,22.798379 0,21.321445 v -2.84433 -2.844329 l 1.061261,-0.589715 1.06126,-0.589715 0.0054,-3.015508 0.0054,-3.0155081 2.656,-1.40265 2.655999,-1.402651 0.0055,1.195568 c 0.003,0.657562 -0.0018,1.202606 -0.01067,1.21121 -0.0089,0.0086 -0.728979,0.391924 -1.600179,0.851822 l -1.583999,0.83618 v 1.7796561 1.779656 l 0.09067,-0.05233 c 0.04987,-0.02878 0.28979,-0.162843 0.533163,-0.297919 l 0.442496,-0.245593 2.661503,1.478701 2.661504,1.478701 v 2.844375 2.844375 l -2.656,1.476934 c -1.4608,0.812316 -2.6608,1.476937 -2.666666,1.476937 -0.0059,0 -1.205867,-0.664621 -2.666667,-1.476937 z m 1.599196,-2.579714 -8.04e-4,-1.008 -1.047093,-0.565333 C 2.631398,18.334399 2.151664,18.076767 2.141224,18.072818 c -0.01097,-0.0042 -0.01664,0.413856 -0.01344,0.990071 l 0.0055,0.997255 1.045333,0.582304 c 0.574933,0.320266 1.052533,0.582735 1.061333,0.583262 0.0088,5.33e-4 0.01564,-0.452645 0.0152,-1.007045 z M 7.466667,20.642448 8.512,20.060144 8.5175,19.062889 C 8.5207,18.486674 8.515,18.068667 8.50406,18.072818 c -0.01044,0.0039 -0.490174,0.261581 -1.066075,0.572514 l -1.047093,0.565333 -8.04e-4,1.008 c -4.42e-4,0.5544 0.0064,1.007569 0.0152,1.007045 0.0088,-5.34e-4 0.4864,-0.262996 1.061333,-0.583262 z M 6.338871,16.818549 c 0.555754,-0.300732 1.010123,-0.552732 1.009708,-0.56 -4.16e-4,-0.0073 -0.456415,-0.265478 -1.013333,-0.573797 l -1.012579,-0.56058 -1.012512,0.56058 c -0.556882,0.308319 -1.010482,0.567782 -1.007999,0.576584 0.0038,0.01352 1.99424,1.101868 2.018049,1.103451 0.0045,3.01e-4 0.462912,-0.245507 1.018666,-0.546238 z m 13.383795,5.97983 -2.656,-1.476934 V 18.47707 15.632695 l 2.661504,-1.478701 2.661504,-1.478701 0.442496,0.245593 c 0.243372,0.135076 0.483296,0.26914 0.533162,0.297919 l 0.09067,0.05233 V 11.491479 9.7118229 l -1.584,-0.83618 c -0.8712,-0.459898 -1.591281,-0.843218 -1.600179,-0.851822 -0.0089,-0.0086 -0.0137,-0.553648 -0.01067,-1.21121 l 0.0055,-1.195568 2.656,1.402651 2.655999,1.40265 0.0054,3.0155081 0.0054,3.015508 1.061261,0.589715 1.061261,0.589715 v 2.844329 2.84433 l -2.656,1.476934 c -1.4608,0.812316 -2.6608,1.476937 -2.666667,1.476937 -0.0059,0 -1.205866,-0.664621 -2.666666,-1.476937 z m 1.599195,-2.579714 -8.1e-4,-1.008 -1.047091,-0.565333 c -0.575902,-0.310933 -1.055636,-0.568565 -1.066076,-0.572514 -0.01097,-0.0042 -0.01664,0.413856 -0.01344,0.990071 l 0.0055,0.997255 1.045333,0.582304 c 0.574933,0.320266 1.052533,0.582735 1.061333,0.583262 0.0088,5.33e-4 0.01564,-0.452645 0.0152,-1.007045 z m 3.211471,0.423783 1.045333,-0.582304 0.0055,-0.997255 c 0.0032,-0.576215 -0.0025,-0.994222 -0.01344,-0.990071 -0.01044,0.0039 -0.490174,0.261581 -1.066075,0.572514 l -1.047092,0.565333 -8.1e-4,1.008 c -4.48e-4,0.5544 0.0064,1.007569 0.01519,1.007045 0.0088,-5.34e-4 0.4864,-0.262996 1.061334,-0.583262 z m -1.127795,-3.823899 c 0.555755,-0.300732 1.010123,-0.552732 1.009707,-0.56 -4.06e-4,-0.0073 -0.456414,-0.265478 -1.013334,-0.573797 l -1.012578,-0.56058 -1.012512,0.56058 c -0.556881,0.308319 -1.010481,0.567782 -1.008,0.576584 0.0038,0.01352 1.99424,1.101868 2.01805,1.103451 0.0045,3.01e-4 0.462912,-0.245507 1.018667,-0.546238 z M 11.173333,10.088378 8.522667,8.6151069 V 5.7813239 2.9475407 L 11.17548,1.4737704 C 12.634527,0.6631968 13.840761,0 13.855999,0 c 0.01524,0 1.221473,0.6631968 2.68052,1.4737704 l 2.652813,1.4737703 v 2.8337922 2.833792 l -2.652813,1.4737711 c -1.459047,0.810573 -2.666247,1.473541 -2.682666,1.473261 -0.01642,-2.79e-4 -1.222653,-0.66348 -2.68052,-1.473779 z m 1.615663,-2.5630451 -3.36e-4,-1.008 -1.054517,-0.570667 c -0.579984,-0.313866 -1.059927,-0.570666 -1.066541,-0.570666 -0.0066,0 -0.0095,0.447932 -0.0065,0.995405 l 0.0055,0.995406 1.045334,0.582305 c 0.574933,0.320267 1.052533,0.582734 1.061333,0.58326 0.0088,5.27e-4 0.01585,-0.452643 0.01566,-1.007043 z m 3.211003,0.423783 1.045334,-0.582305 0.0055,-0.995406 c 0.003,-0.547473 1.33e-4,-0.995405 -0.0065,-0.995405 -0.0066,0 -0.486557,0.2568 -1.066541,0.570666 l -1.054517,0.570667 -3.37e-4,1.008 c -1.92e-4,0.5544 0.0069,1.007569 0.01566,1.007043 0.0088,-5.26e-4 0.4864,-0.262993 1.061333,-0.58326 z m -1.130566,-3.825981 c 0.557278,-0.3018756 1.013233,-0.5550142 1.013233,-0.5625303 0,-0.015934 -1.998054,-1.1286048 -2.026667,-1.1286048 -0.02861,0 -2.026666,1.1126711 -2.026666,1.1286041 0,0.0101 1.990053,1.1030265 2.021434,1.1101604 0.003,6.805e-4 0.461388,-0.2457538 1.018666,-0.5476294 z"
     id="path817"
     inkscape:connector-curvature="0" />
</svg>
