<?xml version="1.0" encoding="UTF-8" standalone="no"?>
<!-- Created with Inkscape (http://www.inkscape.org/) -->

<svg
   xmlns:dc="http://purl.org/dc/elements/1.1/"
   xmlns:cc="http://creativecommons.org/ns#"
   xmlns:rdf="http://www.w3.org/1999/02/22-rdf-syntax-ns#"
   xmlns:svg="http://www.w3.org/2000/svg"
   xmlns="http://www.w3.org/2000/svg"
   xmlns:sodipodi="http://sodipodi.sourceforge.net/DTD/sodipodi-0.dtd"
   xmlns:inkscape="http://www.inkscape.org/namespaces/inkscape"
   version="1.1"
   id="svg2"
   width="475.30002"
   height="766.55182"
   viewBox="0 0 475.30002 766.55182"
   sodipodi:docname="people.svg"
   inkscape:version="0.92.3 (2405546, 2018-03-11)">
  <metadata
     id="metadata8">
    <rdf:RDF>
      <cc:Work
         rdf:about="">
        <dc:format>image/svg+xml</dc:format>
        <dc:type
           rdf:resource="http://purl.org/dc/dcmitype/StillImage" />
        <dc:title></dc:title>
      </cc:Work>
    </rdf:RDF>
  </metadata>
  <defs
     id="defs6" />
  <sodipodi:namedview
     pagecolor="#ffffff"
     bordercolor="#666666"
     borderopacity="1"
     objecttolerance="10"
     gridtolerance="10"
     guidetolerance="10"
     inkscape:pageopacity="0"
     inkscape:pageshadow="2"
     inkscape:window-width="1920"
     inkscape:window-height="1053"
     id="namedview4"
     showgrid="false"
     inkscape:zoom="1.1184834"
     inkscape:cx="-226.93829"
     inkscape:cy="722.19575"
     inkscape:window-x="0"
     inkscape:window-y="27"
     inkscape:window-maximized="1"
     inkscape:current-layer="svg2"
     fit-margin-top="0"
     fit-margin-left="0"
     fit-margin-right="0"
     fit-margin-bottom="0"
     inkscape:pagecheckerboard="true" />
  <path
     style="fill:#000000"
     d="m 96.40674,765.10706 c 5.70195,-3.09917 7.8261,-11.27337 5.62093,-21.63062 -0.67034,-3.14847 -0.50526,-3.69736 1.25,-4.15638 1.78779,-0.46751 2.02234,-1.34398 2.02234,-7.55709 0,-3.86554 0.66198,-10.17517 1.47106,-14.02141 0.80908,-3.84624 1.67461,-12.98816 1.9234,-20.31538 0.24879,-7.32721 0.90452,-17.37221 1.45719,-22.32221 0.55267,-4.95 0.87338,-23.79466 0.71269,-41.87701 -0.23284,-26.20249 -0.004,-33.81555 1.12713,-37.5 0.78061,-2.54265 1.68189,-8.67299 2.00285,-13.62299 0.4117,-6.34947 1.20527,-10.17801 2.69462,-13 1.89877,-3.59776 2.11793,-5.70952 2.17941,-21 0.10626,-26.42652 1.94098,-46.67259 5.981,-66 5.42546,-25.95533 7.45065,-37.41758 7.45065,-42.16942 0,-4.48562 1.25268,-5.62073 2.84788,-2.58058 1.65583,3.1557 5.58583,30.67357 8.17623,57.25 0.6165,6.325 0.97578,21.4 0.7984,33.5 -0.17738,12.1 -0.0975,36.85 0.17749,55 0.9091,60.00087 0.15164,90.78805 -2.87858,117 -0.97294,8.41609 0.004,20.4597 2.75844,34 1.11877,5.5 2.05348,13.05195 2.07714,16.78212 0.0237,3.73016 0.68121,8.30957 1.46125,10.17647 1.24769,2.98614 1.98857,3.47987 6.16055,4.1055 12.02966,1.80396 40.66424,-3.62543 46.11192,-8.74326 4.79758,-4.5071 2.46376,-9.11284 -5.79138,-11.42911 -3.34566,-0.93874 -6.29925,-2.2703 -6.56353,-2.95901 -0.26429,-0.68871 0.2632,-2.69039 1.17219,-4.44817 2.84936,-5.51007 2.1407,-13.79609 -1.95588,-22.86911 -4.25258,-9.41852 -4.38041,-12.41665 -1.12034,-26.27677 3.93451,-16.72745 5.46765,-26.31326 7.09149,-44.33866 0.8423,-9.35 1.96255,-19.7 2.48945,-23 1.76517,-11.05553 2.26206,-28.67072 1.02959,-36.5 -0.64936,-4.125 -1.55036,-11.55 -2.00224,-16.5 -0.45187,-4.95 -1.14251,-10.22946 -1.53475,-11.73214 -0.55427,-2.12338 -0.14931,-3.40225 1.81751,-5.73967 2.8657,-3.4057 3.0521,-4.65987 4.61141,-31.02819 1.24727,-21.09162 2.18151,-26.49927 6.53205,-37.80923 1.83867,-4.77992 4.06984,-12.59834 4.95815,-17.37426 0.88832,-4.77593 2.79829,-11.75093 4.24438,-15.5 2.28912,-5.93468 2.69067,-8.72467 3.10397,-21.56651 0.26109,-8.1125 0.83222,-14.75 1.26917,-14.75 0.43696,0 1.48921,-0.2666 2.33833,-0.59244 0.94264,-0.36172 2.54713,0.4901 4.1201,2.18736 1.98867,2.14581 2.43525,3.42162 1.95812,5.59397 -0.5004,2.27832 0.0102,3.48034 2.68174,6.31265 3.5576,3.77173 7.49072,4.53498 12.23355,2.37401 2.05599,-0.93678 2.96587,-0.76987 5.45142,1 1.64094,1.16845 3.32316,2.12445 3.73828,2.12445 0.41512,0 3.19246,1.84048 6.17187,4.08995 6.55,4.9453 12.34492,7.61393 18.30711,8.43065 2.45164,0.33583 6.5775,1.07176 9.16859,1.6354 6.03292,1.31235 10.77085,-0.15876 14.40528,-4.47275 l 2.6818,-3.18325 -0.71608,4.78819 c -0.39384,2.6335 -1.50361,7.1335 -2.46617,10 -1.4942,4.44975 -1.70314,8.28239 -1.42895,26.21181 0.27564,18.02403 0.56871,21.35428 2.06802,23.5 1.48019,2.11833 1.6429,3.79766 1.06578,11 -0.3746,4.675 -0.43521,19.075 -0.13468,32 0.50216,21.59731 0.36263,24.47159 -1.72342,35.5 -2.82221,14.92028 -3.2247,30.65937 -0.84502,33.04331 0.96706,0.96878 4.78774,2.04977 9.5,2.68784 4.3353,0.58702 8.44487,1.50526 9.13237,2.04053 0.86004,0.6696 1.25127,4.28865 1.25407,11.60076 0.009,24.10967 2.9003,48.87169 7.5143,64.35989 1.35463,4.54722 3.39342,11.74042 4.53063,15.98488 l 2.06766,7.71721 -2.58918,3.78279 c -1.42406,2.08054 -3.26009,6.03279 -4.08007,8.78279 -1.17237,3.9318 -2.16753,5.32046 -4.65811,6.5 -1.74197,0.825 -4.00383,2.6488 -5.02635,4.0529 -2.43491,3.34353 -4.16475,14.97595 -2.47399,16.6365 0.66607,0.65418 9.61777,2.14517 19.89267,3.31333 19.76792,2.24741 28.40708,1.83713 31.75216,-1.50795 2.32027,-2.32027 1.52863,-8.66601 -1.87734,-15.04866 -1.68105,-3.15021 -3.05645,-6.69416 -3.05645,-7.87545 0,-1.18128 -0.87304,-3.86021 -1.9401,-5.95318 -4.38386,-8.59868 -5.49854,-16.04571 -5.10675,-34.11749 0.58312,-26.89699 0.46083,-49.96527 -0.33661,-63.5 -0.60955,-10.34557 -0.47501,-12.93089 0.78055,-15 3.73663,-6.1578 4.03531,-7.69804 4.16924,-21.5 0.0747,-7.7 0.64395,-17.15 1.26495,-21 0.62101,-3.85 1.14491,-13.3 1.16422,-21 0.06,-23.92306 2.62864,-21.79976 6.99999,5.7864 4.29099,27.0791 5.42754,37.49126 4.25266,38.95961 -0.55186,0.68969 -1.32044,2.2875 -1.70797,3.55068 -1.28447,4.18685 8.66756,14.17791 14.16016,14.21569 2.05974,0.0142 5.77073,5.29755 7.97478,11.3538 0.82743,2.2736 1.89336,9.08382 2.36872,15.13382 1.09242,13.90347 2.95605,21.89774 8.49146,36.42521 2.4257,6.36613 5.13623,14.43657 6.0234,17.9343 1.50173,5.92061 1.49206,6.95583 -0.14001,15 -0.96418,4.75227 -1.70587,11.97945 -1.64819,16.06041 0.0704,4.98182 -0.36753,8.09437 -1.33281,9.47251 -3.38021,4.82592 -0.69911,10.90919 6.42668,14.58178 4.4548,2.29597 19.13785,-1.58086 25.15123,-6.64079 2.77366,-2.33388 2.9844,-2.99131 2.9844,-9.31004 0,-5.44027 -0.6152,-8.17008 -3.07872,-13.66111 -7.70799,-17.18061 -7.42128,-16.16546 -7.42128,-26.27619 0,-5.27234 0.62134,-18.13608 1.38076,-28.58608 1.74088,-23.95545 1.11421,-33.71613 -2.86469,-44.61857 -3.85315,-10.55789 -3.8344,-11.5519 0.23393,-12.40014 7.77062,-1.62015 9.41109,-5.34818 6.15232,-13.98129 -0.83044,-2.2 -1.92014,-9.0321 -2.42155,-15.18244 -0.50141,-6.15034 -2.02895,-15.60034 -3.39454,-21 -3.9546,-15.63682 -6.64099,-31.94414 -7.21831,-43.81756 -0.29603,-6.08835 -1.21351,-12.78605 -2.05475,-15 -0.83595,-2.2 -1.85886,-9.24023 -2.27312,-15.64495 -0.64997,-10.04868 -1.18411,-12.56573 -3.89663,-18.36227 -3.65593,-7.81253 -3.90965,-10.53317 -1.14342,-12.26071 2.83362,-1.76962 2.48049,-5.19346 -0.967,-9.37587 -4.0639,-4.93022 -5.29179,-10.95886 -5.57177,-27.3562 -0.33816,-19.80447 -2.01783,-28.90289 -6.22701,-33.73043 -1.25201,-1.43595 -1.3704,-3.39307 -0.69564,-11.5 0.44723,-5.37327 0.81509,-14.33374 0.81745,-19.91216 l 0.004,-10.1426 5.06983,1.49787 c 2.78841,0.82383 5.38752,1.68981 5.77581,1.92441 1.14498,0.69177 7.1455,-2.1942 9.07916,-4.36664 1.68349,-1.89139 2.68696,-1.97681 17.62286,-1.50023 l 15.83773,0.50535 4.64289,-4.27967 c 2.5536,-2.35382 5.61867,-6.01583 6.81128,-8.13779 1.19292,-2.12196 2.7263,-3.85811 3.40783,-3.85811 0.68152,0 2.62366,-1.165 4.31585,-2.58889 2.55878,-2.15307 3.07673,-3.31404 3.07673,-6.89641 0,-3.64789 -0.52137,-4.76528 -3.40467,-7.29686 -1.87257,-1.64414 -3.56319,-3.81243 -3.75693,-4.81842 -0.19373,-1.006 -1.91286,-2.88078 -3.82029,-4.1662 -4.65006,-3.13367 -7.32534,-2.33215 -13.51811,4.05005 -2.75,2.83412 -7.25,6.67747 -10,8.54079 -4.4789,3.03477 -5.50608,3.3283 -9.85588,2.81647 -2.67073,-0.31426 -5.37073,-0.99677 -6,-1.5167 -2.13736,-1.76597 -14.92133,-8.12383 -16.33486,-8.12383 -0.77353,0 -7.12207,-2.32244 -14.10784,-5.16097 -15.14959,-6.15574 -22.57903,-6.90569 -29.96504,-3.02477 -2.92381,1.53629 -6.3805,2.32702 -11,2.51628 -3.70501,0.1518 -7.44373,0.60691 -8.30826,1.01136 -1.12611,0.52683 -1.92166,-0.0323 -2.80527,-1.97162 -1.11809,-2.45394 -0.98964,-2.90161 1.37396,-4.78864 1.89146,-1.51008 3.27243,-4.41549 5.0296,-10.58164 3.78313,-13.27556 4.07538,-19.07584 1.47486,-29.27134 -1.39731,-5.47827 -1.9895,-9.94384 -1.58882,-11.98102 0.35131,-1.7862 0.59409,-7.29764 0.53951,-12.24764 -0.10767,-9.76442 -1.76648,-14.98897 -5.09442,-16.04522 -1.07221,-0.3403 -4.04365,-2.65404 -6.6032,-5.14164 -4.42439,-4.30002 -4.85333,-4.48648 -8.70403,-3.78379 -2.22767,0.40651 -8.84078,0.87802 -14.69579,1.04779 -12.28555,0.35624 -15.26011,1.34771 -24.12562,8.04148 -9.47217,7.15182 -11.69468,9.44321 -14.43401,14.88138 -1.38523,2.75 -3.67664,6.54178 -5.09202,8.42618 -1.41538,1.88441 -2.88919,5.48441 -3.27514,8 -0.80991,5.27901 0.46347,8.47481 5.70854,14.3267 3.69722,4.12495 3.91668,4.88884 2.19608,7.64396 -0.94782,1.51771 -0.74982,2.57785 1.05173,5.63126 4.06397,6.88792 9.24302,12.4719 11.56747,12.4719 1.65222,0 3.07426,1.5081 5.62954,5.97026 3.3909,5.92134 5.63459,7.8745 4.62916,4.02974 -0.28766,-1.1 -0.17024,-2 0.26092,-2 1.84806,0 3.06257,3.21379 4.69396,12.42096 l 1.73687,9.80247 -3.451,2.86782 c -1.89805,1.5773 -6.99489,4.72915 -11.32632,7.00411 -9.77559,5.13435 -15.05117,9.8197 -17.63584,15.66276 -3.93291,8.891 -11.58033,64.05039 -9.20887,66.42185 0.64475,0.64475 3.77052,1.68901 6.94615,2.32058 4.7259,0.93988 5.83188,1.54318 6.09343,3.32388 0.37124,2.52747 0.38873,2.52555 -6.81955,0.74815 -9.15607,-2.25767 -8.66299,-1.60659 -9.37462,-12.37857 -0.35223,-5.33171 -1.1745,-14.32846 -1.82726,-19.99279 -0.91822,-7.96787 -0.91662,-11.30908 0.007,-14.76264 1.01236,-3.78507 0.89494,-5.80602 -0.77212,-13.29018 -1.08132,-4.85447 -2.6753,-15.76129 -3.54217,-24.23736 -1.8365,-17.95671 -7.99028,-59.15244 -9.92042,-66.41104 -0.73126,-2.75 -2.32397,-8.6 -3.53936,-13 -1.66127,-6.01421 -2.24968,-11.07485 -2.37045,-20.38738 l -0.16066,-12.38739 3.99769,-1.39602 c 5.98813,-2.09109 6.97989,-3.44548 4.68637,-6.39989 -3.45571,-4.45152 -4.30821,-6.97427 -6.3087,-18.66894 -1.9875,-11.61874 -8.05858,-39.47055 -10.73767,-49.26038 -0.42951,-1.56948 -3.09486,-4.11384 -7.16092,-6.83584 -9.21631,-6.16982 -14.27316,-8.26467 -22.37462,-9.26893 -4.65316,-0.5768 -9.13778,-1.94249 -13.00554,-3.96054 -5.03181,-2.62542 -6.58512,-2.98641 -10.52094,-2.4451 -4.82422,0.6635 -9.31796,-0.4939 -12.26192,-3.15815 -1.56736,-1.41844 -1.40984,-1.79578 2.17209,-5.20319 2.1241,-2.02061 4.06853,-4.78858 4.32095,-6.15104 3.02035,-16.302608 4.14625,-21.303268 6.24186,-27.722988 2.88038,-8.82382 2.906,-9.86269 0.54377,-22.05343 -1.62606,-8.39155 -1.66162,-9.90445 -0.36431,-15.5 1.6238,-7.00381 1.12411,-12.109965 -1.73315,-17.710665 -1.50709,-2.954135 -3.68006,-4.780225 -9.5327,-8.010956 -4.16936,-2.301536 -10.06794,-6.3611799 -13.10796,-9.0214319 -3.04002,-2.660252 -6.72588,-5.08620603 -8.1908,-5.39100803 -1.46493,-0.304803 -7.8888,-0.190249 -14.27527,0.254564 -13.4418,0.93621003 -18.78343,2.99967303 -27.89207,10.77466493 -3.02031,2.578088 -7.29599,5.460941 -9.50151,6.406339 -5.48467,2.351004 -11.22858,8.911324 -11.98461,13.688041 -0.33163,2.095312 -1.31014,5.239162 -2.17447,6.986312 -0.973,1.96682 -1.35729,4.44236 -1.00904,6.5 1.89788,11.21374 2.55039,13.30526 4.69195,15.03939 2.21817,1.79617 2.22838,1.88428 0.38043,3.28303 -1.0444,0.79053 -2.20425,1.45163 -2.57744,1.46913 -0.37318,0.0175 -2.13647,2.2818 -3.91841,5.0318 -1.78194,2.75 -3.92247,5 -4.75674,5 -0.83426,0 -5.90016,2.50359 -11.25755,5.56353 -5.35738,3.05994 -14.14862,7.13898 -19.53608,9.06453 C 25.23112,94.743902 15.8625,100.10208 7.44544,108.22421 L 0,115.40876 l 0.58892,5.70616 c 0.37807,3.66308 1.47432,7.00997 3.06176,9.3476 3.68893,5.43228 21.94224,23.65713 26.85919,26.81732 2.35954,1.51651 5.81876,4.0542 7.68715,5.63929 1.86839,1.5851 5.25863,3.67996 7.53386,4.65523 4.80546,2.05986 10.09442,7.69768 12.64478,13.4788 3.55576,8.06016 4.31824,16.72048 3.04198,34.55081 -0.66102,9.23486 -1.08618,32.35121 -0.96559,52.5 0.20512,34.27413 0.0892,36.86293 -2.417,54 -1.44785,9.9 -3.60278,26.69572 -4.78874,37.32382 l -2.15629,19.32382 2.27928,2.42618 c 1.2536,1.3344 3.38335,2.42618 4.73277,2.42618 2.32881,0 2.41818,0.21598 1.75854,4.25 -4.19667,25.66449 -4.5872,42.80333 -1.40132,61.4982 2.07791,12.19326 2.11119,13.52115 0.88252,35.21145 -1.42971,25.23937 -0.62818,38.75949 3.08165,51.98052 1.7457,6.22131 1.97281,8.7008 1.28754,14.05678 -0.78096,6.1038 -1.1351,27.60838 -0.60114,36.50305 0.13207,2.2 -0.0432,11.31004 -0.38955,20.24453 -0.37557,9.68899 0.0505,33.45582 1.05591,58.89383 1.57249,39.78784 1.57397,42.94157 0.022,47.00547 -0.915,2.39589 -1.99099,4.35617 -2.39109,4.35617 -0.4001,0 -2.11678,1.35833 -3.81485,3.0185 -2.77055,2.70873 -3.16079,3.84768 -3.80261,11.09814 -0.7021,7.93158 -0.7752,8.10472 -3.98897,9.44751 -1.80057,0.75233 -6.13129,1.72067 -9.62381,2.15186 -5.53449,0.6833 -6.51522,1.1286 -7.63599,3.46711 -1.56955,3.27491 -0.6766,10.05725 1.71257,13.00775 1.4689,1.81401 3.61132,2.23775 17.11282,3.38472 8.48854,0.72111 17.85763,1.7866 20.8202,2.36776 7.72808,1.51599 21.06718,1.27352 24.22024,-0.44026 z M 216.30001,393.91284 c 0,-2.30469 0.46475,-3.30887 1.53138,-3.30887 2.30375,0 2.67955,-2.14524 1.14648,-6.54452 -0.75814,-2.17551 -1.18477,-4.51357 -0.94808,-5.19568 0.2367,-0.68211 -0.29707,-6.20046 -1.18615,-12.26299 -0.99499,-6.7848 -1.55563,-16.5274 -1.45818,-25.34004 0.17437,-15.76879 -0.58275,-18.68754 -7.05047,-27.18015 l -3.06408,-4.02338 1.54359,-13.92233 c 0.84898,-7.65728 1.67023,-14.04896 1.825,-14.20373 0.32541,-0.32541 10.20525,25.47913 15.38106,40.17282 6.36834,18.07917 13.27945,40.84834 13.27945,43.75014 0,3.45489 -1.99407,7.48806 -5.16692,10.45053 -1.29633,1.21036 -4.81927,7.19112 -7.82876,13.29057 -4.79908,9.72648 -5.62749,10.87702 -6.73806,9.35821 -0.69644,-0.95244 -1.26626,-3.2207 -1.26626,-5.04058 z m -159.5,-275.20267 -8,-0.6062 7,-4.56973 c 18.9545,-12.37386 24.1685,-14.516768 30.38515,-12.48806 2.46027,0.80287 12.37769,-1.840708 20.88991,-5.568418 l 4.27507,-1.87215 1.07504,2.74918 c 0.59128,1.51205 1.30927,6.349178 1.59553,10.749178 0.44457,6.83307 0.24763,8.32781 -1.35011,10.24731 -1.79151,2.15229 -2.22993,2.20911 -10.37059,1.3439 -4.675,-0.49687 -10.3,-1.39023 -12.5,-1.98523 -4.96344,-1.3424 -11.3709,-0.50934 -15.13981,1.96838 -2.07525,1.3643 -3.82072,1.70986 -6.36019,1.25919 -1.925,-0.34163 -7.1,-0.89394 -11.5,-1.22735 z"
     id="path817"
     inkscape:connector-curvature="0" />
</svg>
