<?xml version="1.0" encoding="UTF-8"?>
<svg xmlns="http://www.w3.org/2000/svg" xmlns:xlink="http://www.w3.org/1999/xlink" width="98.939529pt" height="62.693436pt" viewBox="0 0 98.939529 62.693436" version="1.1">
<defs>
<clipPath id="clip1">
  <path d="M 0 41 L 21 41 L 21 62.695312 L 0 62.695312 Z M 0 41 "/>
</clipPath>
<clipPath id="clip2">
  <path d="M 42 41 L 68 41 L 68 62.695312 L 42 62.695312 Z M 42 41 "/>
</clipPath>
<clipPath id="clip3">
  <path d="M 46 41 L 71 41 L 71 62.695312 L 46 62.695312 Z M 46 41 "/>
</clipPath>
<clipPath id="clip4">
  <path d="M 49 41 L 74 41 L 74 62.695312 L 49 62.695312 Z M 49 41 "/>
</clipPath>
<clipPath id="clip5">
  <path d="M 52 41 L 77 41 L 77 62.695312 L 52 62.695312 Z M 52 41 "/>
</clipPath>
<clipPath id="clip6">
  <path d="M 55 41 L 81 41 L 81 62.695312 L 55 62.695312 Z M 55 41 "/>
</clipPath>
<clipPath id="clip7">
  <path d="M 58 41 L 84 41 L 84 62.695312 L 58 62.695312 Z M 58 41 "/>
</clipPath>
<clipPath id="clip8">
  <path d="M 62 41 L 87 41 L 87 62.695312 L 62 62.695312 Z M 62 41 "/>
</clipPath>
<clipPath id="clip9">
  <path d="M 65 41 L 90 41 L 90 62.695312 L 65 62.695312 Z M 65 41 "/>
</clipPath>
<clipPath id="clip10">
  <path d="M 68 41 L 93 41 L 93 62.695312 L 68 62.695312 Z M 68 41 "/>
</clipPath>
<clipPath id="clip11">
  <path d="M 71 41 L 97 41 L 97 62.695312 L 71 62.695312 Z M 71 41 "/>
</clipPath>
<clipPath id="clip12">
  <path d="M 81 48 L 93 48 L 93 60 L 81 60 Z M 81 48 "/>
</clipPath>
<clipPath id="clip13">
  <path d="M 84 48 L 96 48 L 96 60 L 84 60 Z M 84 48 "/>
</clipPath>
<clipPath id="clip14">
  <path d="M 0 41 L 21 41 L 21 62.695312 L 0 62.695312 Z M 0 41 "/>
</clipPath>
<clipPath id="clip15">
  <path d="M 0 41 L 25 41 L 25 62.695312 L 0 62.695312 Z M 0 41 "/>
</clipPath>
<clipPath id="clip16">
  <path d="M 2 41 L 28 41 L 28 62.695312 L 2 62.695312 Z M 2 41 "/>
</clipPath>
<clipPath id="clip17">
  <path d="M 6 41 L 31 41 L 31 62.695312 L 6 62.695312 Z M 6 41 "/>
</clipPath>
<clipPath id="clip18">
  <path d="M 9 41 L 34 41 L 34 62.695312 L 9 62.695312 Z M 9 41 "/>
</clipPath>
<clipPath id="clip19">
  <path d="M 12 41 L 37 41 L 37 62.695312 L 12 62.695312 Z M 12 41 "/>
</clipPath>
<clipPath id="clip20">
  <path d="M 15 41 L 41 41 L 41 62.695312 L 15 62.695312 Z M 15 41 "/>
</clipPath>
<clipPath id="clip21">
  <path d="M 18 41 L 44 41 L 44 62.695312 L 18 62.695312 Z M 18 41 "/>
</clipPath>
<clipPath id="clip22">
  <path d="M 22 41 L 47 41 L 47 62.695312 L 22 62.695312 Z M 22 41 "/>
</clipPath>
<clipPath id="clip23">
  <path d="M 25 41 L 50 41 L 50 62.695312 L 25 62.695312 Z M 25 41 "/>
</clipPath>
<clipPath id="clip24">
  <path d="M 28 41 L 53 41 L 53 62.695312 L 28 62.695312 Z M 28 41 "/>
</clipPath>
<clipPath id="clip25">
  <path d="M 31 41 L 57 41 L 57 62.695312 L 31 62.695312 Z M 31 41 "/>
</clipPath>
</defs>
<g id="surface1">
<path style="fill:none;stroke-width:1.259842;stroke-linecap:butt;stroke-linejoin:miter;stroke:rgb(0%,0%,0%);stroke-opacity:1;stroke-miterlimit:4;" d="M 26.308594 26.308594 L 36.386719 26.308594 L 36.386719 36.386719 L 26.308594 36.386719 Z M 26.308594 26.308594 "/>
<path style="fill:none;stroke-width:1.259842;stroke-linecap:butt;stroke-linejoin:miter;stroke:rgb(0%,0%,0%);stroke-opacity:1;stroke-miterlimit:4;" d="M 60.324219 26.308594 L 70.402344 26.308594 L 70.402344 36.386719 L 60.324219 36.386719 Z M 60.324219 26.308594 "/>
<path style=" stroke:none;fill-rule:nonzero;fill:rgb(100%,100%,100%);fill-opacity:1;" d="M 13.710938 54.023438 C 13.710938 56.808594 11.453125 59.0625 8.667969 59.0625 C 5.886719 59.0625 3.628906 56.808594 3.628906 54.023438 C 3.628906 51.242188 5.886719 48.984375 8.667969 48.984375 C 11.453125 48.984375 13.710938 51.242188 13.710938 54.023438 Z M 13.710938 54.023438 "/>
<g clip-path="url(#clip1)" clip-rule="nonzero">
<path style="fill:none;stroke-width:1.259842;stroke-linecap:butt;stroke-linejoin:miter;stroke:rgb(0%,0%,0%);stroke-opacity:1;stroke-miterlimit:4;" d="M 13.710938 54.023438 C 13.710938 56.808594 11.453125 59.0625 8.667969 59.0625 C 5.886719 59.0625 3.628906 56.808594 3.628906 54.023438 C 3.628906 51.242188 5.886719 48.984375 8.667969 48.984375 C 11.453125 48.984375 13.710938 51.242188 13.710938 54.023438 Z M 13.710938 54.023438 "/>
</g>
<path style="fill:none;stroke-width:0.8;stroke-linecap:butt;stroke-linejoin:miter;stroke:rgb(0%,0%,0%);stroke-opacity:1;stroke-miterlimit:4;" d="M 62.859375 36.386719 L 54.09375 54.035156 "/>
<path style=" stroke:none;fill-rule:nonzero;fill:rgb(100%,100%,100%);fill-opacity:1;" d="M 60.109375 54.023438 C 60.109375 56.808594 57.851562 59.0625 55.070312 59.0625 C 52.285156 59.0625 50.03125 56.808594 50.03125 54.023438 C 50.03125 51.242188 52.285156 48.984375 55.070312 48.984375 C 57.851562 48.984375 60.109375 51.242188 60.109375 54.023438 Z M 60.109375 54.023438 "/>
<g clip-path="url(#clip2)" clip-rule="nonzero">
<path style="fill:none;stroke-width:1.259842;stroke-linecap:butt;stroke-linejoin:miter;stroke:rgb(0%,0%,0%);stroke-opacity:1;stroke-miterlimit:4;" d="M 60.109375 54.023438 C 60.109375 56.808594 57.851562 59.0625 55.070312 59.0625 C 52.285156 59.0625 50.03125 56.808594 50.03125 54.023438 C 50.03125 51.242188 52.285156 48.984375 55.070312 48.984375 C 57.851562 48.984375 60.109375 51.242188 60.109375 54.023438 Z M 60.109375 54.023438 "/>
</g>
<path style="fill:none;stroke-width:0.8;stroke-linecap:butt;stroke-linejoin:miter;stroke:rgb(0%,0%,0%);stroke-opacity:1;stroke-miterlimit:4;" d="M 63.652344 36.386719 L 57.628906 54.136719 "/>
<path style=" stroke:none;fill-rule:nonzero;fill:rgb(100%,100%,100%);fill-opacity:1;" d="M 63.308594 54.023438 C 63.308594 56.808594 61.054688 59.0625 58.269531 59.0625 C 55.488281 59.0625 53.230469 56.808594 53.230469 54.023438 C 53.230469 51.242188 55.488281 48.984375 58.269531 48.984375 C 61.054688 48.984375 63.308594 51.242188 63.308594 54.023438 Z M 63.308594 54.023438 "/>
<g clip-path="url(#clip3)" clip-rule="nonzero">
<path style="fill:none;stroke-width:1.259842;stroke-linecap:butt;stroke-linejoin:miter;stroke:rgb(0%,0%,0%);stroke-opacity:1;stroke-miterlimit:4;" d="M 63.308594 54.023438 C 63.308594 56.808594 61.054688 59.0625 58.269531 59.0625 C 55.488281 59.0625 53.230469 56.808594 53.230469 54.023438 C 53.230469 51.242188 55.488281 48.984375 58.269531 48.984375 C 61.054688 48.984375 63.308594 51.242188 63.308594 54.023438 Z M 63.308594 54.023438 "/>
</g>
<path style="fill:none;stroke-width:0.8;stroke-linecap:butt;stroke-linejoin:miter;stroke:rgb(0%,0%,0%);stroke-opacity:1;stroke-miterlimit:4;" d="M 64.269531 36.386719 L 60.457031 53.933594 "/>
<path style=" stroke:none;fill-rule:nonzero;fill:rgb(100%,100%,100%);fill-opacity:1;" d="M 66.507812 54.023438 C 66.507812 56.808594 64.253906 59.0625 61.46875 59.0625 C 58.6875 59.0625 56.429688 56.808594 56.429688 54.023438 C 56.429688 51.242188 58.6875 48.984375 61.46875 48.984375 C 64.253906 48.984375 66.507812 51.242188 66.507812 54.023438 Z M 66.507812 54.023438 "/>
<g clip-path="url(#clip4)" clip-rule="nonzero">
<path style="fill:none;stroke-width:1.259842;stroke-linecap:butt;stroke-linejoin:miter;stroke:rgb(0%,0%,0%);stroke-opacity:1;stroke-miterlimit:4;" d="M 66.507812 54.023438 C 66.507812 56.808594 64.253906 59.0625 61.46875 59.0625 C 58.6875 59.0625 56.429688 56.808594 56.429688 54.023438 C 56.429688 51.242188 58.6875 48.984375 61.46875 48.984375 C 64.253906 48.984375 66.507812 51.242188 66.507812 54.023438 Z M 66.507812 54.023438 "/>
</g>
<path style="fill:none;stroke-width:0.8;stroke-linecap:butt;stroke-linejoin:miter;stroke:rgb(0%,0%,0%);stroke-opacity:1;stroke-miterlimit:4;" d="M 65.011719 36.386719 L 63.789062 53.933594 "/>
<path style=" stroke:none;fill-rule:nonzero;fill:rgb(100%,100%,100%);fill-opacity:1;" d="M 69.710938 54.023438 C 69.710938 56.808594 67.453125 59.0625 64.667969 59.0625 C 61.886719 59.0625 59.628906 56.808594 59.628906 54.023438 C 59.628906 51.242188 61.886719 48.984375 64.667969 48.984375 C 67.453125 48.984375 69.710938 51.242188 69.710938 54.023438 Z M 69.710938 54.023438 "/>
<g clip-path="url(#clip5)" clip-rule="nonzero">
<path style="fill:none;stroke-width:1.259842;stroke-linecap:butt;stroke-linejoin:miter;stroke:rgb(0%,0%,0%);stroke-opacity:1;stroke-miterlimit:4;" d="M 69.710938 54.023438 C 69.710938 56.808594 67.453125 59.0625 64.667969 59.0625 C 61.886719 59.0625 59.628906 56.808594 59.628906 54.023438 C 59.628906 51.242188 61.886719 48.984375 64.667969 48.984375 C 67.453125 48.984375 69.710938 51.242188 69.710938 54.023438 Z M 69.710938 54.023438 "/>
</g>
<path style="fill:none;stroke-width:0.8;stroke-linecap:butt;stroke-linejoin:miter;stroke:rgb(0%,0%,0%);stroke-opacity:1;stroke-miterlimit:4;" d="M 65.777344 36.386719 L 67.222656 54.035156 "/>
<path style=" stroke:none;fill-rule:nonzero;fill:rgb(100%,100%,100%);fill-opacity:1;" d="M 72.910156 54.023438 C 72.910156 56.808594 70.652344 59.0625 67.871094 59.0625 C 65.085938 59.0625 62.832031 56.808594 62.832031 54.023438 C 62.832031 51.242188 65.085938 48.984375 67.871094 48.984375 C 70.652344 48.984375 72.910156 51.242188 72.910156 54.023438 Z M 72.910156 54.023438 "/>
<g clip-path="url(#clip6)" clip-rule="nonzero">
<path style="fill:none;stroke-width:1.259842;stroke-linecap:butt;stroke-linejoin:miter;stroke:rgb(0%,0%,0%);stroke-opacity:1;stroke-miterlimit:4;" d="M 72.910156 54.023438 C 72.910156 56.808594 70.652344 59.0625 67.871094 59.0625 C 65.085938 59.0625 62.832031 56.808594 62.832031 54.023438 C 62.832031 51.242188 65.085938 48.984375 67.871094 48.984375 C 70.652344 48.984375 72.910156 51.242188 72.910156 54.023438 Z M 72.910156 54.023438 "/>
</g>
<path style="fill:none;stroke-width:0.8;stroke-linecap:butt;stroke-linejoin:miter;stroke:rgb(0%,0%,0%);stroke-opacity:1;stroke-miterlimit:4;" d="M 66.492188 36.386719 L 70.457031 54.035156 "/>
<path style=" stroke:none;fill-rule:nonzero;fill:rgb(100%,100%,100%);fill-opacity:1;" d="M 76.109375 54.023438 C 76.109375 56.808594 73.851562 59.0625 71.070312 59.0625 C 68.285156 59.0625 66.03125 56.808594 66.03125 54.023438 C 66.03125 51.242188 68.285156 48.984375 71.070312 48.984375 C 73.851562 48.984375 76.109375 51.242188 76.109375 54.023438 Z M 76.109375 54.023438 "/>
<g clip-path="url(#clip7)" clip-rule="nonzero">
<path style="fill:none;stroke-width:1.259842;stroke-linecap:butt;stroke-linejoin:miter;stroke:rgb(0%,0%,0%);stroke-opacity:1;stroke-miterlimit:4;" d="M 76.109375 54.023438 C 76.109375 56.808594 73.851562 59.0625 71.070312 59.0625 C 68.285156 59.0625 66.03125 56.808594 66.03125 54.023438 C 66.03125 51.242188 68.285156 48.984375 71.070312 48.984375 C 73.851562 48.984375 76.109375 51.242188 76.109375 54.023438 Z M 76.109375 54.023438 "/>
</g>
<path style="fill:none;stroke-width:0.8;stroke-linecap:butt;stroke-linejoin:miter;stroke:rgb(0%,0%,0%);stroke-opacity:1;stroke-miterlimit:4;" d="M 67.230469 36.386719 L 73.6875 53.832031 "/>
<path style=" stroke:none;fill-rule:nonzero;fill:rgb(100%,100%,100%);fill-opacity:1;" d="M 79.308594 54.023438 C 79.308594 56.808594 77.054688 59.0625 74.269531 59.0625 C 71.488281 59.0625 69.230469 56.808594 69.230469 54.023438 C 69.230469 51.242188 71.488281 48.984375 74.269531 48.984375 C 77.054688 48.984375 79.308594 51.242188 79.308594 54.023438 Z M 79.308594 54.023438 "/>
<g clip-path="url(#clip8)" clip-rule="nonzero">
<path style="fill:none;stroke-width:1.259842;stroke-linecap:butt;stroke-linejoin:miter;stroke:rgb(0%,0%,0%);stroke-opacity:1;stroke-miterlimit:4;" d="M 79.308594 54.023438 C 79.308594 56.808594 77.054688 59.0625 74.269531 59.0625 C 71.488281 59.0625 69.230469 56.808594 69.230469 54.023438 C 69.230469 51.242188 71.488281 48.984375 74.269531 48.984375 C 77.054688 48.984375 79.308594 51.242188 79.308594 54.023438 Z M 79.308594 54.023438 "/>
</g>
<path style="fill:none;stroke-width:0.8;stroke-linecap:butt;stroke-linejoin:miter;stroke:rgb(0%,0%,0%);stroke-opacity:1;stroke-miterlimit:4;" d="M 67.917969 36.386719 L 76.820312 53.933594 "/>
<path style=" stroke:none;fill-rule:nonzero;fill:rgb(100%,100%,100%);fill-opacity:1;" d="M 82.507812 54.023438 C 82.507812 56.808594 80.253906 59.0625 77.46875 59.0625 C 74.6875 59.0625 72.429688 56.808594 72.429688 54.023438 C 72.429688 51.242188 74.6875 48.984375 77.46875 48.984375 C 80.253906 48.984375 82.507812 51.242188 82.507812 54.023438 Z M 82.507812 54.023438 "/>
<g clip-path="url(#clip9)" clip-rule="nonzero">
<path style="fill:none;stroke-width:1.259842;stroke-linecap:butt;stroke-linejoin:miter;stroke:rgb(0%,0%,0%);stroke-opacity:1;stroke-miterlimit:4;" d="M 82.507812 54.023438 C 82.507812 56.808594 80.253906 59.0625 77.46875 59.0625 C 74.6875 59.0625 72.429688 56.808594 72.429688 54.023438 C 72.429688 51.242188 74.6875 48.984375 77.46875 48.984375 C 80.253906 48.984375 82.507812 51.242188 82.507812 54.023438 Z M 82.507812 54.023438 "/>
</g>
<path style="fill:none;stroke-width:0.8;stroke-linecap:butt;stroke-linejoin:miter;stroke:rgb(0%,0%,0%);stroke-opacity:1;stroke-miterlimit:4;" d="M 68.664062 36.386719 L 80.152344 53.933594 "/>
<path style=" stroke:none;fill-rule:nonzero;fill:rgb(100%,100%,100%);fill-opacity:1;" d="M 85.710938 54.023438 C 85.710938 56.808594 83.453125 59.0625 80.667969 59.0625 C 77.886719 59.0625 75.628906 56.808594 75.628906 54.023438 C 75.628906 51.242188 77.886719 48.984375 80.667969 48.984375 C 83.453125 48.984375 85.710938 51.242188 85.710938 54.023438 Z M 85.710938 54.023438 "/>
<g clip-path="url(#clip10)" clip-rule="nonzero">
<path style="fill:none;stroke-width:1.259842;stroke-linecap:butt;stroke-linejoin:miter;stroke:rgb(0%,0%,0%);stroke-opacity:1;stroke-miterlimit:4;" d="M 85.710938 54.023438 C 85.710938 56.808594 83.453125 59.0625 80.667969 59.0625 C 77.886719 59.0625 75.628906 56.808594 75.628906 54.023438 C 75.628906 51.242188 77.886719 48.984375 80.667969 48.984375 C 83.453125 48.984375 85.710938 51.242188 85.710938 54.023438 Z M 85.710938 54.023438 "/>
</g>
<path style="fill:none;stroke-width:0.8;stroke-linecap:butt;stroke-linejoin:miter;stroke:rgb(0%,0%,0%);stroke-opacity:1;stroke-miterlimit:4;" d="M 69.339844 36.386719 L 83.183594 53.933594 "/>
<path style=" stroke:none;fill-rule:nonzero;fill:rgb(100%,100%,100%);fill-opacity:1;" d="M 88.910156 54.023438 C 88.910156 56.808594 86.652344 59.0625 83.871094 59.0625 C 81.085938 59.0625 78.832031 56.808594 78.832031 54.023438 C 78.832031 51.242188 81.085938 48.984375 83.871094 48.984375 C 86.652344 48.984375 88.910156 51.242188 88.910156 54.023438 Z M 88.910156 54.023438 "/>
<g clip-path="url(#clip11)" clip-rule="nonzero">
<path style="fill:none;stroke-width:1.259842;stroke-linecap:butt;stroke-linejoin:miter;stroke:rgb(0%,0%,0%);stroke-opacity:1;stroke-miterlimit:4;" d="M 88.910156 54.023438 C 88.910156 56.808594 86.652344 59.0625 83.871094 59.0625 C 81.085938 59.0625 78.832031 56.808594 78.832031 54.023438 C 78.832031 51.242188 81.085938 48.984375 83.871094 48.984375 C 86.652344 48.984375 88.910156 51.242188 88.910156 54.023438 Z M 88.910156 54.023438 "/>
</g>
<path style="fill:none;stroke-width:0.8;stroke-linecap:butt;stroke-linejoin:miter;stroke:rgb(0%,0%,0%);stroke-opacity:1;stroke-miterlimit:4;" d="M 70.105469 36.386719 L 86.71875 54.035156 "/>
<path style=" stroke:none;fill-rule:nonzero;fill:rgb(100%,100%,100%);fill-opacity:1;" d="M 92.109375 54.023438 C 92.109375 56.808594 89.851562 59.0625 87.070312 59.0625 C 84.285156 59.0625 82.03125 56.808594 82.03125 54.023438 C 82.03125 51.242188 84.285156 48.984375 87.070312 48.984375 C 89.851562 48.984375 92.109375 51.242188 92.109375 54.023438 Z M 92.109375 54.023438 "/>
<g clip-path="url(#clip12)" clip-rule="nonzero">
<path style="fill:none;stroke-width:1.259842;stroke-linecap:butt;stroke-linejoin:miter;stroke:rgb(0%,0%,0%);stroke-opacity:1;stroke-miterlimit:4;" d="M 92.109375 54.023437 C 92.109375 56.808594 89.851562 59.0625 87.070312 59.0625 C 84.285156 59.0625 82.03125 56.808594 82.03125 54.023437 C 82.03125 51.242187 84.285156 48.984375 87.070312 48.984375 C 89.851562 48.984375 92.109375 51.242187 92.109375 54.023437 Z M 92.109375 54.023437 " transform="matrix(1,0,0,1,0,0.000000000000007105)"/>
</g>
<path style="fill:none;stroke-width:0.8;stroke-linecap:butt;stroke-linejoin:miter;stroke:rgb(0%,0%,0%);stroke-opacity:1;stroke-miterlimit:4;" d="M 70.402344 35.902344 L 90.457031 54.035156 "/>
<path style=" stroke:none;fill-rule:nonzero;fill:rgb(100%,100%,100%);fill-opacity:1;" d="M 95.308594 54.023438 C 95.308594 56.808594 93.054688 59.0625 90.269531 59.0625 C 87.488281 59.0625 85.230469 56.808594 85.230469 54.023438 C 85.230469 51.242188 87.488281 48.984375 90.269531 48.984375 C 93.054688 48.984375 95.308594 51.242188 95.308594 54.023438 Z M 95.308594 54.023438 "/>
<g clip-path="url(#clip13)" clip-rule="nonzero">
<path style="fill:none;stroke-width:1.259842;stroke-linecap:butt;stroke-linejoin:miter;stroke:rgb(0%,0%,0%);stroke-opacity:1;stroke-miterlimit:4;" d="M 95.308594 54.023437 C 95.308594 56.808594 93.054688 59.0625 90.269531 59.0625 C 87.488281 59.0625 85.230469 56.808594 85.230469 54.023437 C 85.230469 51.242187 87.488281 48.984375 90.269531 48.984375 C 93.054688 48.984375 95.308594 51.242187 95.308594 54.023437 Z M 95.308594 54.023437 " transform="matrix(1,0,0,1,0,0.000000000000007105)"/>
</g>
<path style="fill:none;stroke-width:1.259842;stroke-linecap:butt;stroke-linejoin:miter;stroke:rgb(0%,0%,0%);stroke-opacity:1;stroke-miterlimit:4;" d="M 53.394531 8.667969 C 53.394531 11.453125 51.136719 13.707031 48.355469 13.707031 C 45.570312 13.707031 43.316406 11.453125 43.316406 8.667969 C 43.316406 5.886719 45.570312 3.628906 48.355469 3.628906 C 51.136719 3.628906 53.394531 5.886719 53.394531 8.667969 Z M 53.394531 8.667969 "/>
<path style="fill:none;stroke-width:0.8;stroke-linecap:butt;stroke-linejoin:miter;stroke:rgb(0%,0%,0%);stroke-opacity:1;stroke-miterlimit:4;" d="M 61.582031 26.304688 L 51.378906 12.699219 "/>
<path style="fill:none;stroke-width:0.8;stroke-linecap:butt;stroke-linejoin:miter;stroke:rgb(0%,0%,0%);stroke-opacity:1;stroke-miterlimit:4;" d="M 35.125 26.304688 L 45.332031 12.699219 "/>
<path style="fill:none;stroke-width:0.8;stroke-linecap:butt;stroke-linejoin:miter;stroke:rgb(0%,0%,0%);stroke-opacity:1;stroke-miterlimit:4;" d="M 26.308594 36.25 L 7.929688 54.136719 "/>
<path style=" stroke:none;fill-rule:nonzero;fill:rgb(100%,100%,100%);fill-opacity:1;" d="M 13.710938 54.023438 C 13.710938 56.808594 11.453125 59.0625 8.667969 59.0625 C 5.886719 59.0625 3.628906 56.808594 3.628906 54.023438 C 3.628906 51.242188 5.886719 48.984375 8.667969 48.984375 C 11.453125 48.984375 13.710938 51.242188 13.710938 54.023438 Z M 13.710938 54.023438 "/>
<g clip-path="url(#clip14)" clip-rule="nonzero">
<path style="fill:none;stroke-width:1.259842;stroke-linecap:butt;stroke-linejoin:miter;stroke:rgb(0%,0%,0%);stroke-opacity:1;stroke-miterlimit:4;" d="M 13.710938 54.023438 C 13.710938 56.808594 11.453125 59.0625 8.667969 59.0625 C 5.886719 59.0625 3.628906 56.808594 3.628906 54.023438 C 3.628906 51.242188 5.886719 48.984375 8.667969 48.984375 C 11.453125 48.984375 13.710938 51.242188 13.710938 54.023438 Z M 13.710938 54.023438 "/>
</g>
<path style="fill:none;stroke-width:0.8;stroke-linecap:butt;stroke-linejoin:miter;stroke:rgb(0%,0%,0%);stroke-opacity:1;stroke-miterlimit:4;" d="M 26.882812 36.386719 L 11.160156 54.136719 "/>
<path style=" stroke:none;fill-rule:nonzero;fill:rgb(100%,100%,100%);fill-opacity:1;" d="M 16.910156 54.023438 C 16.910156 56.808594 14.652344 59.0625 11.871094 59.0625 C 9.085938 59.0625 6.832031 56.808594 6.832031 54.023438 C 6.832031 51.242188 9.085938 48.984375 11.871094 48.984375 C 14.652344 48.984375 16.910156 51.242188 16.910156 54.023438 Z M 16.910156 54.023438 "/>
<g clip-path="url(#clip15)" clip-rule="nonzero">
<path style="fill:none;stroke-width:1.259842;stroke-linecap:butt;stroke-linejoin:miter;stroke:rgb(0%,0%,0%);stroke-opacity:1;stroke-miterlimit:4;" d="M 16.910156 54.023438 C 16.910156 56.808594 14.652344 59.0625 11.871094 59.0625 C 9.085938 59.0625 6.832031 56.808594 6.832031 54.023438 C 6.832031 51.242188 9.085938 48.984375 11.871094 48.984375 C 14.652344 48.984375 16.910156 51.242188 16.910156 54.023438 Z M 16.910156 54.023438 "/>
</g>
<path style="fill:none;stroke-width:0.8;stroke-linecap:butt;stroke-linejoin:miter;stroke:rgb(0%,0%,0%);stroke-opacity:1;stroke-miterlimit:4;" d="M 27.523438 36.386719 L 14.292969 53.832031 "/>
<path style=" stroke:none;fill-rule:nonzero;fill:rgb(100%,100%,100%);fill-opacity:1;" d="M 20.109375 54.023438 C 20.109375 56.808594 17.851562 59.0625 15.070312 59.0625 C 12.285156 59.0625 10.03125 56.808594 10.03125 54.023438 C 10.03125 51.242188 12.285156 48.984375 15.070312 48.984375 C 17.851562 48.984375 20.109375 51.242188 20.109375 54.023438 Z M 20.109375 54.023438 "/>
<g clip-path="url(#clip16)" clip-rule="nonzero">
<path style="fill:none;stroke-width:1.259842;stroke-linecap:butt;stroke-linejoin:miter;stroke:rgb(0%,0%,0%);stroke-opacity:1;stroke-miterlimit:4;" d="M 20.109375 54.023438 C 20.109375 56.808594 17.851562 59.0625 15.070312 59.0625 C 12.285156 59.0625 10.03125 56.808594 10.03125 54.023438 C 10.03125 51.242188 12.285156 48.984375 15.070312 48.984375 C 17.851562 48.984375 20.109375 51.242188 20.109375 54.023438 Z M 20.109375 54.023438 "/>
</g>
<path style="fill:none;stroke-width:0.8;stroke-linecap:butt;stroke-linejoin:miter;stroke:rgb(0%,0%,0%);stroke-opacity:1;stroke-miterlimit:4;" d="M 28.300781 36.386719 L 17.625 54.035156 "/>
<path style=" stroke:none;fill-rule:nonzero;fill:rgb(100%,100%,100%);fill-opacity:1;" d="M 23.308594 54.023438 C 23.308594 56.808594 21.054688 59.0625 18.269531 59.0625 C 15.488281 59.0625 13.230469 56.808594 13.230469 54.023438 C 13.230469 51.242188 15.488281 48.984375 18.269531 48.984375 C 21.054688 48.984375 23.308594 51.242188 23.308594 54.023438 Z M 23.308594 54.023438 "/>
<g clip-path="url(#clip17)" clip-rule="nonzero">
<path style="fill:none;stroke-width:1.259842;stroke-linecap:butt;stroke-linejoin:miter;stroke:rgb(0%,0%,0%);stroke-opacity:1;stroke-miterlimit:4;" d="M 23.308594 54.023438 C 23.308594 56.808594 21.054688 59.0625 18.269531 59.0625 C 15.488281 59.0625 13.230469 56.808594 13.230469 54.023438 C 13.230469 51.242188 15.488281 48.984375 18.269531 48.984375 C 21.054688 48.984375 23.308594 51.242188 23.308594 54.023438 Z M 23.308594 54.023438 "/>
</g>
<path style="fill:none;stroke-width:0.8;stroke-linecap:butt;stroke-linejoin:miter;stroke:rgb(0%,0%,0%);stroke-opacity:1;stroke-miterlimit:4;" d="M 29.007812 36.386719 L 20.859375 53.933594 "/>
<path style=" stroke:none;fill-rule:nonzero;fill:rgb(100%,100%,100%);fill-opacity:1;" d="M 26.507812 54.023438 C 26.507812 56.808594 24.253906 59.0625 21.46875 59.0625 C 18.6875 59.0625 16.429688 56.808594 16.429688 54.023438 C 16.429688 51.242188 18.6875 48.984375 21.46875 48.984375 C 24.253906 48.984375 26.507812 51.242188 26.507812 54.023438 Z M 26.507812 54.023438 "/>
<g clip-path="url(#clip18)" clip-rule="nonzero">
<path style="fill:none;stroke-width:1.259842;stroke-linecap:butt;stroke-linejoin:miter;stroke:rgb(0%,0%,0%);stroke-opacity:1;stroke-miterlimit:4;" d="M 26.507812 54.023438 C 26.507812 56.808594 24.253906 59.0625 21.46875 59.0625 C 18.6875 59.0625 16.429688 56.808594 16.429688 54.023438 C 16.429688 51.242188 18.6875 48.984375 21.46875 48.984375 C 24.253906 48.984375 26.507812 51.242188 26.507812 54.023438 Z M 26.507812 54.023438 "/>
</g>
<path style="fill:none;stroke-width:0.8;stroke-linecap:butt;stroke-linejoin:miter;stroke:rgb(0%,0%,0%);stroke-opacity:1;stroke-miterlimit:4;" d="M 29.71875 36.386719 L 23.988281 54.136719 "/>
<path style=" stroke:none;fill-rule:nonzero;fill:rgb(100%,100%,100%);fill-opacity:1;" d="M 29.710938 54.023438 C 29.710938 56.808594 27.453125 59.0625 24.667969 59.0625 C 21.886719 59.0625 19.628906 56.808594 19.628906 54.023438 C 19.628906 51.242188 21.886719 48.984375 24.667969 48.984375 C 27.453125 48.984375 29.710938 51.242188 29.710938 54.023438 Z M 29.710938 54.023438 "/>
<g clip-path="url(#clip19)" clip-rule="nonzero">
<path style="fill:none;stroke-width:1.259842;stroke-linecap:butt;stroke-linejoin:miter;stroke:rgb(0%,0%,0%);stroke-opacity:1;stroke-miterlimit:4;" d="M 29.710938 54.023438 C 29.710938 56.808594 27.453125 59.0625 24.667969 59.0625 C 21.886719 59.0625 19.628906 56.808594 19.628906 54.023438 C 19.628906 51.242188 21.886719 48.984375 24.667969 48.984375 C 27.453125 48.984375 29.710938 51.242188 29.710938 54.023438 Z M 29.710938 54.023438 "/>
</g>
<path style="fill:none;stroke-width:0.8;stroke-linecap:butt;stroke-linejoin:miter;stroke:rgb(0%,0%,0%);stroke-opacity:1;stroke-miterlimit:4;" d="M 30.472656 36.386719 L 27.425781 53.933594 "/>
<path style=" stroke:none;fill-rule:nonzero;fill:rgb(100%,100%,100%);fill-opacity:1;" d="M 32.910156 54.023438 C 32.910156 56.808594 30.652344 59.0625 27.871094 59.0625 C 25.085938 59.0625 22.832031 56.808594 22.832031 54.023438 C 22.832031 51.242188 25.085938 48.984375 27.871094 48.984375 C 30.652344 48.984375 32.910156 51.242188 32.910156 54.023438 Z M 32.910156 54.023438 "/>
<g clip-path="url(#clip20)" clip-rule="nonzero">
<path style="fill:none;stroke-width:1.259842;stroke-linecap:butt;stroke-linejoin:miter;stroke:rgb(0%,0%,0%);stroke-opacity:1;stroke-miterlimit:4;" d="M 32.910156 54.023438 C 32.910156 56.808594 30.652344 59.0625 27.871094 59.0625 C 25.085938 59.0625 22.832031 56.808594 22.832031 54.023438 C 22.832031 51.242188 25.085938 48.984375 27.871094 48.984375 C 30.652344 48.984375 32.910156 51.242188 32.910156 54.023438 Z M 32.910156 54.023438 "/>
</g>
<path style="fill:none;stroke-width:0.8;stroke-linecap:butt;stroke-linejoin:miter;stroke:rgb(0%,0%,0%);stroke-opacity:1;stroke-miterlimit:4;" d="M 31.125 36.386719 L 30.355469 53.933594 "/>
<path style=" stroke:none;fill-rule:nonzero;fill:rgb(100%,100%,100%);fill-opacity:1;" d="M 36.109375 54.023438 C 36.109375 56.808594 33.851562 59.0625 31.070312 59.0625 C 28.285156 59.0625 26.03125 56.808594 26.03125 54.023438 C 26.03125 51.242188 28.285156 48.984375 31.070312 48.984375 C 33.851562 48.984375 36.109375 51.242188 36.109375 54.023438 Z M 36.109375 54.023438 "/>
<g clip-path="url(#clip21)" clip-rule="nonzero">
<path style="fill:none;stroke-width:1.259842;stroke-linecap:butt;stroke-linejoin:miter;stroke:rgb(0%,0%,0%);stroke-opacity:1;stroke-miterlimit:4;" d="M 36.109375 54.023438 C 36.109375 56.808594 33.851562 59.0625 31.070312 59.0625 C 28.285156 59.0625 26.03125 56.808594 26.03125 54.023438 C 26.03125 51.242188 28.285156 48.984375 31.070312 48.984375 C 33.851562 48.984375 36.109375 51.242188 36.109375 54.023438 Z M 36.109375 54.023438 "/>
</g>
<path style="fill:none;stroke-width:0.8;stroke-linecap:butt;stroke-linejoin:miter;stroke:rgb(0%,0%,0%);stroke-opacity:1;stroke-miterlimit:4;" d="M 31.867188 36.386719 L 33.6875 54.035156 "/>
<path style=" stroke:none;fill-rule:nonzero;fill:rgb(100%,100%,100%);fill-opacity:1;" d="M 39.308594 54.023438 C 39.308594 56.808594 37.054688 59.0625 34.269531 59.0625 C 31.488281 59.0625 29.230469 56.808594 29.230469 54.023438 C 29.230469 51.242188 31.488281 48.984375 34.269531 48.984375 C 37.054688 48.984375 39.308594 51.242188 39.308594 54.023438 Z M 39.308594 54.023438 "/>
<g clip-path="url(#clip22)" clip-rule="nonzero">
<path style="fill:none;stroke-width:1.259842;stroke-linecap:butt;stroke-linejoin:miter;stroke:rgb(0%,0%,0%);stroke-opacity:1;stroke-miterlimit:4;" d="M 39.308594 54.023438 C 39.308594 56.808594 37.054688 59.0625 34.269531 59.0625 C 31.488281 59.0625 29.230469 56.808594 29.230469 54.023438 C 29.230469 51.242188 31.488281 48.984375 34.269531 48.984375 C 37.054688 48.984375 39.308594 51.242188 39.308594 54.023438 Z M 39.308594 54.023438 "/>
</g>
<path style="fill:none;stroke-width:0.8;stroke-linecap:butt;stroke-linejoin:miter;stroke:rgb(0%,0%,0%);stroke-opacity:1;stroke-miterlimit:4;" d="M 32.589844 36.386719 L 36.917969 53.933594 "/>
<path style=" stroke:none;fill-rule:nonzero;fill:rgb(100%,100%,100%);fill-opacity:1;" d="M 42.507812 54.023438 C 42.507812 56.808594 40.253906 59.0625 37.46875 59.0625 C 34.6875 59.0625 32.429688 56.808594 32.429688 54.023438 C 32.429688 51.242188 34.6875 48.984375 37.46875 48.984375 C 40.253906 48.984375 42.507812 51.242188 42.507812 54.023438 Z M 42.507812 54.023438 "/>
<g clip-path="url(#clip23)" clip-rule="nonzero">
<path style="fill:none;stroke-width:1.259842;stroke-linecap:butt;stroke-linejoin:miter;stroke:rgb(0%,0%,0%);stroke-opacity:1;stroke-miterlimit:4;" d="M 42.507812 54.023438 C 42.507812 56.808594 40.253906 59.0625 37.46875 59.0625 C 34.6875 59.0625 32.429688 56.808594 32.429688 54.023438 C 32.429688 51.242188 34.6875 48.984375 37.46875 48.984375 C 40.253906 48.984375 42.507812 51.242188 42.507812 54.023438 Z M 42.507812 54.023438 "/>
</g>
<path style="fill:none;stroke-width:0.8;stroke-linecap:butt;stroke-linejoin:miter;stroke:rgb(0%,0%,0%);stroke-opacity:1;stroke-miterlimit:4;" d="M 33.332031 36.386719 L 40.253906 53.933594 "/>
<path style=" stroke:none;fill-rule:nonzero;fill:rgb(100%,100%,100%);fill-opacity:1;" d="M 45.710938 54.023438 C 45.710938 56.808594 43.453125 59.0625 40.667969 59.0625 C 37.886719 59.0625 35.628906 56.808594 35.628906 54.023438 C 35.628906 51.242188 37.886719 48.984375 40.667969 48.984375 C 43.453125 48.984375 45.710938 51.242188 45.710938 54.023438 Z M 45.710938 54.023438 "/>
<g clip-path="url(#clip24)" clip-rule="nonzero">
<path style="fill:none;stroke-width:1.259842;stroke-linecap:butt;stroke-linejoin:miter;stroke:rgb(0%,0%,0%);stroke-opacity:1;stroke-miterlimit:4;" d="M 45.710938 54.023438 C 45.710938 56.808594 43.453125 59.0625 40.667969 59.0625 C 37.886719 59.0625 35.628906 56.808594 35.628906 54.023438 C 35.628906 51.242188 37.886719 48.984375 40.667969 48.984375 C 43.453125 48.984375 45.710938 51.242188 45.710938 54.023438 Z M 45.710938 54.023438 "/>
</g>
<path style="fill:none;stroke-width:0.8;stroke-linecap:butt;stroke-linejoin:miter;stroke:rgb(0%,0%,0%);stroke-opacity:1;stroke-miterlimit:4;" d="M 34.167969 36.386719 L 43.992188 53.933594 "/>
<path style=" stroke:none;fill-rule:nonzero;fill:rgb(100%,100%,100%);fill-opacity:1;" d="M 48.910156 54.023438 C 48.910156 56.808594 46.652344 59.0625 43.871094 59.0625 C 41.085938 59.0625 38.832031 56.808594 38.832031 54.023438 C 38.832031 51.242188 41.085938 48.984375 43.871094 48.984375 C 46.652344 48.984375 48.910156 51.242188 48.910156 54.023438 Z M 48.910156 54.023438 "/>
<g clip-path="url(#clip25)" clip-rule="nonzero">
<path style="fill:none;stroke-width:1.259842;stroke-linecap:butt;stroke-linejoin:miter;stroke:rgb(0%,0%,0%);stroke-opacity:1;stroke-miterlimit:4;" d="M 48.910156 54.023438 C 48.910156 56.808594 46.652344 59.0625 43.871094 59.0625 C 41.085938 59.0625 38.832031 56.808594 38.832031 54.023438 C 38.832031 51.242188 41.085938 48.984375 43.871094 48.984375 C 46.652344 48.984375 48.910156 51.242188 48.910156 54.023438 Z M 48.910156 54.023438 "/>
</g>
</g>
</svg>
